<svg viewBox="0 0 65 24" fill="none" xmlns="http://www.w3.org/2000/svg">
    <g clip-path="url(#clip0_2210_366)">
        <mask id="mask0_2210_366" style="mask-type:luminance" maskUnits="userSpaceOnUse" x="0" y="0" width="65" height="24">
            <path d="M64.4211 0H0V24H64.4211V0Z" fill="white"/>
        </mask>
        <g mask="url(#mask0_2210_366)">
            <path d="M63.7047 15.1903L57.3179 3.06455C56.8519 2.1297 56.1607 1.34871 55.2979 0.802792C54.058 0.0186717 52.6144 -0.189854 51.2321 0.216264C49.8498 0.622382 48.6941 1.59394 47.9787 2.95287L41.5323 15.1911C40.0553 17.9957 40.9352 21.5945 43.4933 23.2134C44.3077 23.7289 45.2326 24.0007 46.1681 24.0007C48.0784 24.0007 49.8583 22.8753 50.8124 21.0634L52.6187 17.634L54.4249 21.0634C55.3791 22.8753 57.159 24.0007 59.0693 24.0007C60.0048 24.0007 60.9297 23.7281 61.7441 23.2134C64.3028 21.5945 65.182 17.9957 63.7047 15.1911V15.1903ZM49.5783 20.2816C48.8779 21.6116 47.5711 22.4379 46.1681 22.4379C45.4827 22.4379 44.8036 22.238 44.2058 21.86C42.3276 20.6713 41.682 18.03 42.7664 15.9713L49.2128 3.73308C49.7379 2.73576 50.5858 2.02271 51.6005 1.72437C51.9389 1.62518 52.2831 1.57598 52.6244 1.57598C53.3056 1.57598 53.9782 1.77201 54.5846 2.15548C55.1924 2.54051 55.684 3.0833 56.0246 3.73308L56.0681 3.81587C56.217 4.11499 56.3353 4.4352 56.4172 4.77337C56.6894 5.88551 56.5498 7.04685 56.0246 8.04418L49.5783 20.2824V20.2816ZM61.0316 21.8592C60.4338 22.2372 59.7555 22.4372 59.0693 22.4372C57.6663 22.4372 56.3595 21.6109 55.6591 20.2808L53.4417 16.0705L57.2587 8.82361C57.5316 8.30584 57.7276 7.75523 57.8451 7.18902L62.4709 15.9705C63.5557 18.0292 62.9091 20.6705 61.0316 21.8592Z" fill="currentColor"/>
            <path d="M42.7572 2.02509C40.8226 -0.422551 37.4324 -0.689654 35.1993 1.43075L32.2601 4.22047L29.3209 1.43075C27.0878 -0.688871 23.6976 -0.422551 21.763 2.02587C19.8292 4.47351 20.0722 8.1895 22.3059 10.3099L26.9018 14.6725V18.1089C26.9018 21.3469 29.3052 23.9812 32.2594 23.9812C35.2135 23.9812 37.6169 21.3469 37.6169 18.1089V14.6725L42.2128 10.3099C43.2944 9.28289 43.9471 7.85603 44.0497 6.29089C44.1523 4.72577 43.6927 3.21142 42.7557 2.02587L42.7572 2.02509ZM36.1933 18.1081C36.1933 20.4847 34.429 22.4185 32.2608 22.4185C30.0925 22.4185 28.3283 20.4847 28.3283 18.1081V13.9587L23.2401 9.12904C21.6005 7.57327 21.4224 4.84526 22.8418 3.04819C23.6184 2.0657 24.715 1.56118 25.8173 1.56118C26.7301 1.56118 27.6471 1.90637 28.3896 2.61161L34.8359 8.7307C35.6988 9.54998 36.194 10.7379 36.194 11.989V18.1081H36.1933ZM42.6296 6.17843C42.5541 7.32651 42.076 8.37461 41.2815 9.12821L37.6184 12.6052V11.989C37.6184 10.2841 36.9443 8.6659 35.7679 7.54984L33.3488 5.25372L36.132 2.61161C37.7708 1.05587 40.2597 1.25112 41.6791 3.04819C42.3667 3.91823 42.7044 5.03036 42.6289 6.17921L42.6296 6.17843Z" fill="currentColor"/>
            <path d="M22.8894 15.1903L16.5022 3.06456C16.0362 2.12893 15.345 1.34871 14.4814 0.80201C11.9235 -0.816992 8.64006 0.147538 7.16299 2.95209L0.716672 15.1903C-0.760415 17.9948 0.119567 21.5937 2.67757 23.2127C3.492 23.7281 4.41687 23.9999 5.35243 23.9999C7.26272 23.9999 9.04263 22.8745 9.99676 21.0626L11.803 17.6333L13.6093 21.0626C14.5634 22.8745 16.3433 23.9999 18.2536 23.9999C19.1891 23.9999 20.114 23.7274 20.9284 23.2127C23.4872 21.5937 24.3664 17.9948 22.8894 15.1903ZM8.76265 20.2816C8.06223 21.6116 6.75543 22.4379 5.35243 22.4379C4.66697 22.4379 3.98792 22.238 3.39011 21.86C1.51186 20.6713 0.866306 18.03 1.95078 15.9713L8.39709 3.73309C9.12461 2.35151 10.4492 1.57832 11.8095 1.57832C12.4763 1.57832 13.1511 1.7642 13.7689 2.15469C14.3767 2.53973 14.8683 3.08252 15.2089 3.73231L15.2524 3.8151C15.4013 4.11422 15.5196 4.43442 15.6015 4.77181C15.8737 5.88395 15.7341 7.04527 15.2089 8.0426L8.76265 20.2808V20.2816ZM20.2159 21.8592C19.6181 22.2372 18.9398 22.4372 18.2536 22.4372C16.8506 22.4372 15.5439 21.6109 14.8434 20.2808L12.626 16.0705L16.443 8.82361C16.7159 8.30584 16.9119 7.75523 17.0295 7.18902L21.6553 15.9705C22.7397 18.0292 22.0935 20.6705 20.2159 21.8592Z" fill="currentColor"/>
        </g>
    </g>
    <defs>
        <clipPath id="clip0_2210_366">
            <rect width="64.4211" height="24" fill="white"/>
        </clipPath>
    </defs>
</svg>
