<svg viewBox="0 0 16 16" fill="none" xmlns="http://www.w3.org/2000/svg">
    <path d="M5.55047 2.05002C5.55047 1.74625 5.30421 1.5 5.00045 1.5C4.69668 1.5 4.45043 1.74625 4.45043 2.05002V5.9498C4.45043 6.25367 4.2041 6.5 3.90023 6.5C3.59637 6.5 3.35004 6.25367 3.35004 5.9498V2.05002C3.35004 1.74625 3.10378 1.5 2.80002 1.5C2.49625 1.5 2.25 1.74625 2.25 2.05002V6.22973C2.25 7.41745 3.16207 8.39215 4.32402 8.49164L4 14C4 14.5523 4.44772 15 5 15C5.55228 15 6 14.5523 6 14L5.67598 8.49164C6.83793 8.39215 7.75 7.41745 7.75 6.22973V2.05002C7.75 1.74625 7.50375 1.5 7.19998 1.5C6.89622 1.5 6.64996 1.74625 6.64996 2.05002V5.95025C6.64996 6.25387 6.40383 6.5 6.10021 6.5C5.7966 6.5 5.55047 6.25387 5.55047 5.95025V2.05002Z" fill="currentColor"/>
    <path d="M13.5 5C13.5 6.60859 12.7249 7.96372 11.669 8.37327L12 14C12 14.5523 11.5523 15 11 15C10.4477 15 10 14.5523 10 14L10.331 8.37327C9.27512 7.96372 8.5 6.60859 8.5 5C8.5 3.067 9.61929 1.5 11 1.5C12.3807 1.5 13.5 3.067 13.5 5Z" fill="currentColor"/>
</svg>
