<svg width="16" height="16" viewBox="0 0 16 16" fill="none" xmlns="http://www.w3.org/2000/svg">
    <path fill-rule="evenodd" clip-rule="evenodd"
          d="M8 16C12.4183 16 16 12.4183 16 8C16 3.58172 12.4183 0 8 0C3.58172 0 0 3.58172 0 8C0 12.4183 3.58172 16 8 16ZM7 4C7 3.44772 7.44772 3 8 3C8.55229 3 9 3.44772 9 4V8.5C9 9.05229 8.55229 9.5 8 9.5C7.44772 9.5 7 9.05228 7 8.5V4ZM8 11C7.44772 11 7 11.4477 7 12C7 12.5523 7.44772 13 8 13C8.55229 13 9 12.5523 9 12C9 11.4477 8.55229 11 8 11Z"
          fill="currentColor"/>
</svg>
