<svg viewBox="0 0 16 16" fill="none" xmlns="http://www.w3.org/2000/svg">
    <path d="M2.28592 1.71429C1.65474 1.71429 1.14307 2.22596 1.14307 2.85714V3.42857C1.14307 4.05975 1.65474 4.57143 2.28592 4.57143H13.7145C14.3457 4.57143 14.8574 4.05975 14.8574 3.42857V2.85714C14.8574 2.22596 14.3457 1.71429 13.7145 1.71429H10.8574V1.14286C10.8574 0.511675 10.3457 0 9.71449 0H6.28592C5.65474 0 5.14307 0.511675 5.14307 1.14286V1.71429H2.28592Z" fill="currentColor"/>
    <path fill-rule="evenodd" clip-rule="evenodd" d="M2.42692 6.98335C2.3517 6.30636 2.88164 5.71429 3.56279 5.71429H12.4376C13.1188 5.71429 13.6487 6.30636 13.5735 6.98335L12.6846 14.9834C12.6203 15.5621 12.1311 16 11.5487 16H4.45168C3.86934 16 3.38012 15.5621 3.31581 14.9834L2.42692 6.98335ZM6.28594 8C5.78099 8 5.37165 8.40934 5.37165 8.91429V12.8C5.37165 13.3049 5.78099 13.7143 6.28594 13.7143C6.79089 13.7143 7.20023 13.3049 7.20023 12.8V8.91429C7.20023 8.40934 6.79089 8 6.28594 8ZM9.71451 8C9.20957 8 8.80023 8.40934 8.80023 8.91429V12.8C8.80023 13.3049 9.20957 13.7143 9.71451 13.7143C10.2195 13.7143 10.6288 13.3049 10.6288 12.8V8.91429C10.6288 8.40934 10.2195 8 9.71451 8Z" fill="currentColor"/>
</svg>
