<svg width="48" height="48" viewBox="0 0 48 48" fill="none" xmlns="http://www.w3.org/2000/svg">
<g clip-path="url(#clip0_2741_4513)">
<mask id="mask0_2741_4513" style="mask-type:luminance" maskUnits="userSpaceOnUse" x="0" y="0" width="48" height="48">
<path d="M48 0H0V48H48V0Z" fill="white"/>
</mask>
<g mask="url(#mask0_2741_4513)">
<path d="M37.599 25.769C37.599 33.1389 31.6245 39.1134 24.2546 39.1134C16.8846 39.1134 10.9102 33.1389 10.9102 25.769C10.9102 18.3991 16.8846 12.4246 24.2546 12.4246C31.6245 12.4246 37.599 18.3991 37.599 25.769Z" fill="url(#paint0_linear_2741_4513)"/>
<path d="M24.2538 12.4249C16.8846 12.4249 10.9102 18.3994 10.9102 25.7694C10.9102 33.1386 16.8846 39.1131 24.2538 39.1131C31.6239 39.1131 37.5983 33.1386 37.5983 25.7694C37.5983 18.3994 31.6239 12.4249 24.2538 12.4249ZM24.2538 38.3309C17.3161 38.3309 11.6923 32.7072 11.6923 25.7694C11.6923 18.8309 17.3161 13.2071 24.2538 13.2071C31.1924 13.2071 36.8161 18.8309 36.8161 25.7694C36.8161 32.7072 31.1924 38.3309 24.2538 38.3309Z" fill="url(#paint1_linear_2741_4513)"/>
<path d="M24.2033 15.9412C18.7762 15.9693 14.3988 20.3924 14.4269 25.8203C14.455 31.2475 18.8781 35.6249 24.3052 35.5968C29.7331 35.5686 34.1106 31.1456 34.0825 25.7185C34.0543 20.2905 29.6313 15.9131 24.2033 15.9412ZM24.2951 33.6475C19.9446 33.67 16.3988 30.1607 16.3762 25.8102C16.3537 21.4589 19.863 17.9131 24.2135 17.8906C28.5648 17.868 32.1106 21.3773 32.1331 25.7286C32.1556 30.0791 28.6464 33.6249 24.2951 33.6475Z" fill="url(#paint2_linear_2741_4513)"/>
<path d="M24.2564 39.5005C16.2812 39.547 10.584 33.3071 10.584 25.769C10.584 18.231 16.7263 12.1414 24.2644 12.1414C31.8024 12.1414 37.9253 18.231 37.9253 25.769C37.9253 33.3071 32.2434 39.4538 24.2564 39.5005ZM24.2546 12.7509C17.0763 12.7509 11.2365 18.5908 11.2365 25.769C11.2365 32.9473 17.0763 38.7872 24.2546 38.7872C31.4328 38.7872 37.2728 32.9473 37.2728 25.769C37.2728 18.5908 31.4328 12.7509 24.2546 12.7509Z" fill="url(#paint3_linear_2741_4513)"/>
<path d="M24.2017 15.6965C18.6482 15.7253 14.153 20.2673 14.1818 25.8216C14.2106 31.3752 18.7526 35.8702 24.3061 35.8415C29.8604 35.8127 34.3555 31.2708 34.3267 25.7172C34.2979 20.1629 29.756 15.6677 24.2017 15.6965ZM24.3036 35.3521C19.02 35.3795 14.6986 31.1026 14.6712 25.8191C14.6437 20.5347 18.9207 16.2133 24.2042 16.1859C29.4886 16.1585 33.81 20.4354 33.8374 25.7197C33.8648 31.0033 29.5879 35.3247 24.3036 35.3521Z" fill="url(#paint4_linear_2741_4513)"/>
<path d="M24.2116 17.6458C19.7331 17.6691 16.1077 21.3321 16.131 25.8115C16.1542 30.29 19.8173 33.9153 24.2958 33.8921C28.7752 33.8688 32.4005 30.2058 32.3772 25.7272C32.354 21.2479 28.691 17.6226 24.2116 17.6458ZM24.2933 33.4027C20.0839 33.4246 16.6422 30.0183 16.6203 25.809C16.5985 21.5996 20.0048 18.1571 24.2142 18.1352C28.4236 18.1134 31.8661 21.5205 31.8879 25.7299C31.9098 29.9392 28.5027 33.3809 24.2933 33.4027Z" fill="url(#paint5_linear_2741_4513)"/>
<path d="M11.3228 18.8334C11.3593 18.3507 11.2907 17.0719 11.1822 15.5714C10.9599 12.4995 10.5697 8.49869 10.5697 8.49869C10.5697 8.49869 10.5141 12.8399 10.383 15.5698C10.3205 16.8703 10.3767 17.7265 10.0025 17.7265C9.64066 17.7265 9.66113 16.9086 9.54556 15.5862C9.30691 12.856 9.10129 8.49869 9.10129 8.49869C9.10129 8.49869 9.1331 12.8527 8.89713 15.579C8.77324 17.0101 8.79991 17.7265 8.38655 17.7265C7.95036 17.7265 7.99807 17.0544 7.87654 15.5861C7.65086 12.8593 7.67182 8.49869 7.67182 8.49869C7.67182 8.49869 7.44043 12.8536 7.22755 15.586C7.11981 16.9686 7.1756 17.74 6.77064 17.7265C6.40646 17.7143 6.46184 16.9559 6.39137 15.5884C6.25076 12.86 6.20337 8.49869 6.20337 8.49869C6.20337 8.49869 5.33913 17.3624 5.4503 18.8334C5.58341 20.5941 7.26091 21.1511 7.5153 22.2135C7.63577 22.7167 7.7104 25.4623 7.55225 28.9292C7.45935 30.9653 7.29468 32.1711 6.76224 34.9995C6.53533 36.2049 6.07654 37.5428 6.08201 38.5823C6.08959 40.0256 7.20985 40.5108 8.38647 40.5108H8.38664C9.54074 40.5108 10.6474 40.0247 10.6912 38.5811C10.7251 37.4636 10.2717 36.1808 10.0265 34.9797C9.46954 32.251 9.3746 30.7819 9.26645 28.9263C9.06548 25.4802 9.13766 22.7151 9.2578 22.2135C9.5122 21.1511 11.1897 20.5941 11.3228 18.8334Z" fill="url(#paint6_linear_2741_4513)"/>
<g opacity="0.2">
<path d="M7.63603 26.0514C7.63994 24.6983 9.14012 24.6983 9.15277 26.0514C9.16321 27.1658 9.23368 33.8577 10.6521 38.4135C10.6521 38.4135 8.23935 36.9593 6.16016 38.4135C6.16016 38.4135 7.61996 31.6486 7.63603 26.0514Z" fill="#4F3B3C"/>
</g>
<g opacity="0.3">
<path d="M9.25781 22.2135C9.34557 21.0541 10.5376 20.6139 10.8639 19.0798C11.1407 17.7784 11.0351 13.6803 11.0351 13.6803" stroke="white" stroke-width="0.6525" stroke-linecap="round" stroke-linejoin="round"/>
</g>
<g opacity="0.3">
<path d="M7.42913 30.7239C7.45604 35.1911 4.86627 39.9437 8.38578 39.9437C11.8713 39.9437 9.32415 35.6805 9.38793 30.7239" stroke="white" stroke-width="0.6525" stroke-linecap="round" stroke-linejoin="round"/>
</g>
<g opacity="0.3">
<path d="M5.68478 14.3286C5.68478 14.3286 5.548 18.5397 5.94635 19.3604C6.48613 20.4726 7.55583 21.0972 7.55583 22.4917" stroke="white" stroke-width="0.6525" stroke-linecap="round" stroke-linejoin="round"/>
</g>
<path d="M11.3228 18.8334C11.3593 18.3507 11.2907 17.0719 11.1822 15.5714C10.9599 12.4995 10.5697 8.49869 10.5697 8.49869C10.5697 8.49869 10.5141 12.8399 10.383 15.5698C10.3205 16.8703 10.3767 17.7265 10.0025 17.7265C9.64066 17.7265 9.66113 16.9086 9.54556 15.5862C9.3069 12.856 9.10129 8.49869 9.10129 8.49869C9.10129 8.49869 9.1331 12.8527 8.89713 15.579C8.77324 17.0101 8.79991 17.7265 8.38655 17.7265C7.95036 17.7265 7.99807 17.0544 7.87654 15.5861C7.65086 12.8593 7.67182 8.49869 7.67182 8.49869C7.67182 8.49869 7.44043 12.8536 7.22755 15.586C7.11981 16.9686 7.1756 17.74 6.77064 17.7265C6.40646 17.7143 6.46184 16.9559 6.39137 15.5884C6.25076 12.86 6.20337 8.49869 6.20337 8.49869C6.20337 8.49869 5.33913 17.3624 5.4503 18.8334C5.58341 20.5941 7.26091 21.1511 7.5153 22.2135C7.63577 22.7167 7.7104 25.4623 7.55225 28.9292C7.45935 30.9653 7.29468 32.1711 6.76224 34.9995C6.53533 36.2049 6.07654 37.5428 6.08201 38.5823C6.08959 40.0256 7.20985 40.5108 8.38647 40.5108H8.38663C9.54074 40.5108 10.6474 40.0247 10.6912 38.5811C10.7251 37.4636 10.2717 36.1808 10.0265 34.9797C9.46954 32.251 9.3746 30.7819 9.26645 28.9263C9.06548 25.4802 9.13766 22.7151 9.2578 22.2135C9.5122 21.1511 11.1897 20.5941 11.3228 18.8334Z" stroke="#798589" stroke-width="0.6525" stroke-linecap="round" stroke-linejoin="round"/>
<g opacity="0.55">
<path d="M6.2793 39.4925C6.65277 40.2379 7.50355 40.5108 8.38597 40.5108H8.38606C9.54017 40.5108 10.6469 40.0247 10.6907 38.5811C10.7246 37.4636 10.2712 36.1808 10.026 34.9797C9.46904 32.251 9.3741 30.7819 9.26595 28.9263C9.06498 25.4802 9.13717 22.7151 9.25731 22.2135C9.35404 21.8094 9.65664 21.4784 10.0019 21.1265" stroke="#4C5760" stroke-width="0.6525" stroke-linecap="round" stroke-linejoin="round"/>
</g>
<g opacity="0.7">
<path d="M6.77047 17.7265C6.4063 17.7143 6.4616 16.9559 6.39113 15.5884C6.25051 12.86 6.20312 8.49869 6.20312 8.49869" stroke="#4B515E" stroke-width="0.6525" stroke-linecap="round" stroke-linejoin="round"/>
</g>
<g opacity="0.7">
<path d="M8.38606 17.7265C7.94987 17.7265 7.99766 17.0544 7.87613 15.5861C7.65045 12.8593 7.67141 8.49869 7.67141 8.49869" stroke="#4B515E" stroke-width="0.6525" stroke-linecap="round" stroke-linejoin="round"/>
</g>
<g opacity="0.7">
<path d="M10.0019 17.7265C9.64004 17.7265 9.66051 16.9086 9.54494 15.5862C9.30629 12.856 9.10059 8.49869 9.10059 8.49869" stroke="#4B515E" stroke-width="0.6525" stroke-linecap="round" stroke-linejoin="round"/>
</g>
<g opacity="0.7">
<path d="M11.3027 17.4842C11.2762 16.9358 11.2338 16.2782 11.1827 15.5715C10.9603 12.4996 10.5703 8.49878 10.5703 8.49878" stroke="#4B515E" stroke-width="0.6525" stroke-linecap="round" stroke-linejoin="round"/>
</g>
<path d="M40.5711 40.4973C42.394 40.4973 42.5788 39.4338 42.5351 37.7684C42.4915 36.1031 41.8027 25.1358 41.8311 24.7078C41.8727 24.0805 42.5092 24.2393 42.6196 22.9309C42.7097 21.8637 42.7012 9.92888 42.7012 8.50154C42.7012 7.68485 41.4637 7.50011 40.3698 8.82836C38.8681 10.6518 38.3281 13.3987 38.3281 17.5421C38.3281 18.636 38.3661 21.5538 38.4138 23.2167C38.4333 23.8995 38.7784 24.3236 39.5881 24.6195C39.5881 24.6195 38.7089 36.5417 38.6013 37.7435C38.4936 38.9453 38.513 40.4973 40.5711 40.4973Z" fill="url(#paint7_linear_2741_4513)"/>
<g opacity="0.4">
<path d="M39.8786 24.5876C39.8786 24.5876 39.0957 37.3356 39.0957 38.5296C39.0957 40.2988 39.9697 40.4973 40.5702 40.4973" stroke="white" stroke-width="0.6525" stroke-linecap="round" stroke-linejoin="round"/>
</g>
<g opacity="0.4">
<path d="M41.5971 24.506C41.5971 24.506 41.789 30.9173 41.953 35.4234C42.0521 38.1426 42.5028 40.3557 40.5703 40.4973" stroke="white" stroke-width="0.6525" stroke-linecap="round" stroke-linejoin="round"/>
</g>
<g opacity="0.3">
<path d="M38.8735 37.6511C38.5701 39.799 42.5274 39.94 42.2767 37.6511C42.2767 37.6511 43.1509 40.4973 40.5704 40.4973C37.9899 40.4973 38.8735 37.6511 38.8735 37.6511Z" fill="#332426"/>
</g>
<g opacity="0.4">
<path d="M42.7014 10.099C42.7014 10.099 42.868 8.29871 42.0921 8.29871C41.3458 8.29871 39.353 10.0609 38.9866 14.4986C38.8716 15.8924 38.8931 17.4691 38.9866 23.1787C38.9984 23.8971 39.2711 24.0842 39.5882 24.1897" stroke="white" stroke-width="0.6525" stroke-linecap="round" stroke-linejoin="round"/>
</g>
<path d="M38.4326 23.4344C38.7167 24.0194 40.0424 24.5875 41.6813 24.177C42.5603 23.9568 42.6195 22.9309 42.662 21.2003" stroke="#BAC5CC" stroke-width="0.6525" stroke-linecap="round" stroke-linejoin="round"/>
<path d="M40.5945 40.4973C42.4175 40.4973 42.6022 39.4338 42.5586 37.7684C42.5149 36.1031 41.8261 25.1358 41.8545 24.7078C41.8962 24.0805 42.5326 24.2393 42.6431 22.9309C42.7331 21.8637 42.7246 9.92888 42.7246 8.50154C42.7246 7.68485 41.4872 7.50011 40.3932 8.82836C38.8915 10.6518 38.3516 13.3987 38.3516 17.5421C38.3516 18.636 38.3896 21.5538 38.4372 23.2167C38.4568 23.8995 38.8019 24.3236 39.6115 24.6195C39.6115 24.6195 38.7324 36.5417 38.6247 37.7435C38.5171 38.9453 38.5365 40.4973 40.5945 40.4973Z" stroke="#8A999E" stroke-width="0.6525" stroke-linecap="round" stroke-linejoin="round"/>
<path d="M39.6347 24.6195C39.6347 24.6195 38.7556 36.5417 38.6479 37.7435C38.5403 38.9453 38.5597 40.4973 40.6177 40.4973C42.4407 40.4973 42.6254 39.4338 42.5818 37.7684C42.5381 36.1031 41.8493 25.1358 41.8777 24.7078" stroke="#798589" stroke-width="0.6525" stroke-linecap="round" stroke-linejoin="round"/>
<g opacity="0.6">
<path d="M38.5676 38.3007C38.5449 39.3755 38.821 40.4973 40.5708 40.4973C42.3937 40.4973 42.5785 39.4338 42.5348 37.7684C42.4912 36.1031 41.8024 25.1358 41.8308 24.7078C41.8725 24.0805 42.5089 24.2393 42.6193 22.9309C42.7094 21.8637 42.7009 9.92896 42.7009 8.50162" stroke="#616570" stroke-width="0.6525" stroke-linecap="round" stroke-linejoin="round"/>
</g>
<g opacity="0.3">
<path d="M38.5676 38.3017C38.5451 39.3761 38.8215 40.4973 40.5708 40.4973C42.1907 40.4973 42.517 39.6573 42.539 38.3016" stroke="#5B4955" stroke-width="0.6525" stroke-linecap="round" stroke-linejoin="round"/>
</g>
<path d="M41.8311 24.7077C41.8727 24.0805 42.5092 24.2393 42.6196 22.9309C42.7097 21.8637 42.7012 9.92895 42.7012 8.5016C42.7012 7.68492 41.4637 7.5001 40.3698 8.82834C38.8681 10.6518 38.3281 13.3987 38.3281 17.5421C38.3281 18.636 38.3661 21.5538 38.4138 23.2167C38.4333 23.8995 38.7784 24.3236 39.5881 24.6195" stroke="#808E93" stroke-width="0.6525" stroke-linecap="round" stroke-linejoin="round"/>
<g opacity="0.4">
<path d="M41.8311 24.7078C41.8727 24.0805 42.5092 24.2393 42.6196 22.9309C42.7096 21.8637 42.7012 9.92896 42.7012 8.50162" stroke="#564159" stroke-width="0.6525" stroke-linecap="round" stroke-linejoin="round"/>
</g>
<g opacity="0.3">
<path d="M38.4131 23.2167C38.4327 23.8995 38.7778 24.3237 39.5874 24.6196" stroke="#4B515E" stroke-width="0.6525" stroke-linecap="round" stroke-linejoin="round"/>
</g>
<g opacity="0.3">
<path d="M41.8311 24.7077C41.8727 24.0804 42.5092 24.2394 42.6196 22.9309" stroke="#4B515E" stroke-width="0.6525" stroke-linecap="round" stroke-linejoin="round"/>
</g>
</g>
</g>
<defs>
<linearGradient id="paint0_linear_2741_4513" x1="29.5018" y1="20.1298" x2="17.6278" y2="32.5747" gradientUnits="userSpaceOnUse">
<stop stop-color="#DFE0E0"/>
<stop offset="0.54" stop-color="#E1E1E2"/>
<stop offset="1" stop-color="#E3E3E4"/>
</linearGradient>
<linearGradient id="paint1_linear_2741_4513" x1="15.0648" y1="17.1119" x2="33.7582" y2="34.5767" gradientUnits="userSpaceOnUse">
<stop stop-color="#F8F8F8"/>
<stop offset="0.25" stop-color="#F2F6F9"/>
<stop offset="0.46" stop-color="#ECF4FB"/>
<stop offset="0.74" stop-color="#E8ECEF" stop-opacity="0.5"/>
<stop offset="1" stop-color="#E3E3E4" stop-opacity="0"/>
</linearGradient>
<linearGradient id="paint2_linear_2741_4513" x1="26.319" y1="14.1039" x2="32.868" y2="30.4308" gradientUnits="userSpaceOnUse">
<stop stop-color="#C2C2C2"/>
<stop offset="0.19" stop-color="#D0CFCD"/>
<stop offset="0.35" stop-color="#DDDBD8"/>
<stop offset="0.55" stop-color="#E5EAEB"/>
<stop offset="0.73" stop-color="#EDF8FE"/>
<stop offset="0.87" stop-color="#DEE7EE"/>
<stop offset="1" stop-color="#CFD5DE"/>
</linearGradient>
<linearGradient id="paint3_linear_2741_4513" x1="30.8068" y1="32.5273" x2="16.2058" y2="17.4296" gradientUnits="userSpaceOnUse">
<stop stop-color="#9299A7"/>
<stop offset="0.54" stop-color="#ACB4C1"/>
<stop offset="1" stop-color="#C7CFDA"/>
</linearGradient>
<linearGradient id="paint4_linear_2741_4513" x1="24.3838" y1="15.9076" x2="32.5228" y2="32.0484" gradientUnits="userSpaceOnUse">
<stop offset="0.13" stop-color="#C2C2C2"/>
<stop offset="0.29" stop-color="#DADADA"/>
<stop offset="0.43" stop-color="#F1F1F1"/>
<stop offset="0.66" stop-color="#EDEFF2"/>
<stop offset="0.89" stop-color="#E9EEF3"/>
<stop offset="0.95" stop-color="#F4F7F9"/>
<stop offset="1" stop-color="white"/>
</linearGradient>
<linearGradient id="paint5_linear_2741_4513" x1="25.5862" y1="17.8762" x2="30.1965" y2="32.3542" gradientUnits="userSpaceOnUse">
<stop stop-color="#C2C2C2"/>
<stop offset="0.32" stop-color="#DADADA"/>
<stop offset="0.58" stop-color="#F1F1F1"/>
<stop offset="0.75" stop-color="#EDEFF2"/>
<stop offset="0.92" stop-color="#E9EEF3"/>
<stop offset="0.96" stop-color="#EDF0F3"/>
<stop offset="1" stop-color="#F2F2F3"/>
</linearGradient>
<linearGradient id="paint6_linear_2741_4513" x1="8.33068" y1="38.5639" x2="8.33068" y2="16.6735" gradientUnits="userSpaceOnUse">
<stop stop-color="#B8CEE6"/>
<stop offset="0.12" stop-color="#8A95A6"/>
<stop offset="0.47" stop-color="#5D5D66"/>
<stop offset="0.61" stop-color="#929CA9"/>
<stop offset="0.69" stop-color="#C7DAEB"/>
<stop offset="0.74" stop-color="#9FB4CB"/>
<stop offset="0.82" stop-color="#768EAB"/>
<stop offset="0.88" stop-color="#9FB5CF"/>
<stop offset="0.92" stop-color="#C7DCF2"/>
<stop offset="0.96" stop-color="#93A3AF"/>
<stop offset="1" stop-color="#5E6B6D"/>
</linearGradient>
<linearGradient id="paint7_linear_2741_4513" x1="40.4505" y1="13.266" x2="40.4505" y2="39.8492" gradientUnits="userSpaceOnUse">
<stop stop-color="#A6B0BE"/>
<stop offset="0.12" stop-color="#B8C8D8"/>
<stop offset="0.23" stop-color="#CAE0F2"/>
<stop offset="0.34" stop-color="#ADC4DB"/>
<stop offset="0.38" stop-color="#90A7C3"/>
<stop offset="0.41" stop-color="#8995A4"/>
<stop offset="0.48" stop-color="#838485"/>
<stop offset="0.62" stop-color="#9EA6AD"/>
<stop offset="0.72" stop-color="#B9C8D5"/>
<stop offset="0.94" stop-color="#959CA3"/>
<stop offset="1" stop-color="#717071"/>
</linearGradient>
<clipPath id="clip0_2741_4513">
<rect width="48" height="48" fill="white"/>
</clipPath>
</defs>
</svg>
