<svg width="42" height="41" viewBox="0 0 42 41" fill="none" xmlns="http://www.w3.org/2000/svg">
<path d="M24.9593 10.2182C24.9593 10.2182 24.8609 7.39545 25.2055 4.86814C25.4222 3.27879 25.7505 0.693075 27.4539 0.568388C29.4725 0.420732 31.647 2.71817 33.124 4.44139C34.923 6.54017 35.6021 8.38011 35.8975 9.15148C36.1909 9.91779 35.6975 10.5613 35.1118 9.19451C34.8164 8.50526 33.963 6.60158 32.3547 4.86195C30.5865 2.94936 29.2099 1.75817 27.659 1.93048C26.8052 2.02536 26.3834 3.42851 26.1328 4.88454C25.7881 6.88676 25.7388 9.13508 25.6896 10.1854C25.6502 11.0257 25.1399 11.0716 24.9593 10.2182Z" fill="url(#paint0_linear_2741_4592)"/>
<path d="M24.6546 10.0541C24.6546 10.0541 24.5562 7.23139 24.9008 4.70408C25.1176 3.11473 25.4458 0.529013 27.1492 0.404326C29.1678 0.256669 31.3423 2.55411 32.8193 4.27733C34.6183 6.37611 35.2974 8.21604 35.5928 8.98742C35.8862 9.75373 35.3928 10.3972 34.8071 9.03045C34.5117 8.3412 33.6583 6.43751 32.05 4.69789C30.2818 2.78529 28.9052 1.59411 27.3543 1.76642C26.5006 1.86129 26.0787 3.26445 25.8281 4.72048C25.4835 6.7227 25.4341 8.97101 25.3849 10.0213C25.3456 10.8617 24.8352 10.9075 24.6546 10.0541Z" fill="url(#paint1_linear_2741_4592)"/>
<path d="M38.5065 6.91135L41.5428 38.1308L31.983 33.7521L31.8115 6.99685C31.8115 6.99272 31.8148 6.98935 31.8189 6.98935L38.5065 6.91135Z" fill="url(#paint2_linear_2741_4592)"/>
<g opacity="0.6">
<path d="M31.8125 9.36376L38.7381 9.33826L38.9489 11.5106L31.8454 11.495L31.8125 9.36376Z" fill="#FFFF71"/>
</g>
<g opacity="0.6">
<path d="M31.8555 14.6373L39.2539 14.6118L39.4601 16.7842L31.8698 16.7685L31.8555 14.6373Z" fill="#FFFF71"/>
</g>
<g opacity="0.6">
<path d="M31.8926 20.0201L39.7649 19.9946L39.9834 22.2068L31.9079 22.1514L31.8926 20.0201Z" fill="#FFFF71"/>
</g>
<g opacity="0.6">
<path d="M31.9385 25.3579L40.2819 25.3324L40.4919 27.5445L31.9546 27.4892L31.9385 25.3579Z" fill="#FFFF71"/>
</g>
<g opacity="0.6">
<path d="M33.9219 30.6987L40.8058 30.8138L41.0253 33.0382L36.2511 32.9517L33.9219 30.6987Z" fill="#FFFF71"/>
</g>
<g opacity="0.6">
<path d="M39.5137 36.0933L41.273 36.1247L41.641 38.1353L39.5137 36.0933Z" fill="#FFFF71"/>
</g>
<path d="M31.8115 6.99684L38.5066 6.91144L41.516 38.2341" stroke="#DD9200" stroke-width="0.75" stroke-linecap="round" stroke-linejoin="round"/>
<path d="M41.5438 38.0411C41.5438 38.0411 41.6117 38.4643 41.5457 38.4675C40.6721 38.5094 27.537 39.0838 27.4473 39.018C26.9942 38.6857 31.9398 28.7917 31.9398 28.7917L41.5438 38.0411Z" fill="#B2821E"/>
<g opacity="0.39">
<path d="M30.9369 30.8227L33.9223 30.6986L36.2516 32.9516L29.8076 33.1305L30.9369 30.8227Z" fill="#ACE481"/>
</g>
<g opacity="0.39">
<path d="M28.2488 36.542L39.5143 36.0967L41.5433 38.041L27.4437 38.8293C27.4437 38.8293 27.4253 38.5862 27.653 38.0139C27.8532 37.5105 28.2488 36.542 28.2488 36.542Z" fill="#ACE481"/>
</g>
<path d="M31.9404 28.7917L41.5164 38.2341" stroke="#B36A00" stroke-width="0.75" stroke-linecap="round" stroke-linejoin="round"/>
<path d="M27.6387 38.8265L41.5157 38.234" stroke="#C27500" stroke-width="0.75" stroke-linecap="round" stroke-linejoin="round"/>
<path d="M31.8062 6.98817L30.162 6.57501L27.4541 38.9216L31.9743 28.7368L31.8121 6.99539C31.8121 6.99192 31.8095 6.98892 31.8062 6.98817Z" fill="url(#paint3_linear_2741_4592)"/>
<g opacity="0.3">
<path d="M29.8824 9.03949L31.8133 9.3649L31.8461 11.495L29.6855 11.2687L29.8824 9.03949Z" fill="#DBFF8A"/>
</g>
<g opacity="0.3">
<path d="M29.5096 14.3601L31.8564 14.6372L31.8713 16.7691L29.3311 16.668L29.5096 14.3601Z" fill="#DBFF8A"/>
</g>
<g opacity="0.3">
<path d="M29.0355 19.9973L31.8931 20.0201L31.912 22.1561L28.8447 22.1226L29.0355 19.9973Z" fill="#DBFF8A"/>
</g>
<g opacity="0.3">
<path d="M28.5763 25.5074L31.9304 25.3662L31.9493 27.5022L28.3896 27.8112L28.5763 25.5074Z" fill="#DBFF8A"/>
</g>
<g opacity="0.3">
<path d="M28.1046 31.0339L30.9377 30.8227L29.8083 33.1304L27.918 33.3376L28.1046 31.0339Z" fill="#DBFF8A"/>
</g>
<path d="M30.1616 6.57501L31.8058 6.98817L31.9401 28.7917L27.5225 38.1622" stroke="#9F3B00" stroke-width="0.75" stroke-linecap="round" stroke-linejoin="round"/>
<path d="M12.0188 8.15045L30.1614 6.57498L27.4536 38.9215L8.95801 36.9522L12.0188 8.15045Z" fill="url(#paint4_linear_2741_4592)"/>
<g opacity="0.7">
<path d="M11.8045 10.18L29.8816 9.03937L29.6846 11.2686L11.6035 12.174L11.8045 10.18Z" fill="#FFFF71"/>
</g>
<g opacity="0.7">
<path d="M11.3135 14.808L29.3905 14.3567L29.2141 16.6693L11.0879 16.791L11.3135 14.808Z" fill="#FFFF71"/>
</g>
<path d="M16.6008 7.75248L17.8256 7.65198C17.8256 7.65198 16.6952 11.9107 16.086 11.7322C15.6705 11.6105 15.922 10.9847 15.9342 10.5526C15.9441 10.1999 16.6008 7.75248 16.6008 7.75248Z" fill="url(#paint5_linear_2741_4592)"/>
<path d="M25.0238 7.01802L26.705 6.87955C26.705 6.87955 26.3316 11.4256 25.3223 11.5302C24.8917 11.5748 24.9624 10.3303 24.9746 9.8982C24.9846 9.54552 25.0238 7.01802 25.0238 7.01802Z" fill="url(#paint6_linear_2741_4592)"/>
<g opacity="0.7">
<path d="M10.8048 19.7588L29.0357 19.9974L28.8634 22.1226L10.5791 21.7418L10.8048 19.7588Z" fill="#FFFF71"/>
</g>
<g opacity="0.7">
<path d="M10.2442 24.9225L28.5756 25.5074L28.389 27.8111L10.0186 26.9055L10.2442 24.9225Z" fill="#FFFF71"/>
</g>
<g opacity="0.7">
<path d="M9.73251 29.8951L28.0554 31.0251L27.879 33.3376L9.50488 31.8627L9.73251 29.8951Z" fill="#FFFF71"/>
</g>
<g opacity="0.7">
<path d="M9.18366 34.9692L27.5629 36.5393L27.3865 38.8518L8.95801 36.9522L9.18366 34.9692Z" fill="#FFFF71"/>
</g>
<mask id="mask0_2741_4592" style="mask-type:luminance" maskUnits="userSpaceOnUse" x="8" y="6" width="23" height="33">
<path d="M12.0188 8.15045L30.1614 6.57498L27.4536 38.9215L8.95801 36.9522L12.0188 8.15045Z" fill="url(#paint7_radial_2741_4592)"/>
</mask>
<g mask="url(#mask0_2741_4592)">
<path d="M12.0188 8.15045L30.1614 6.57498L27.4536 38.9215L8.95801 36.9522L12.0188 8.15045Z" fill="url(#paint8_radial_2741_4592)" fill-opacity="0.5"/>
</g>
<path d="M27.4443 38.8293L8.95801 36.9522L12.0188 8.15045L30.1614 6.57498" stroke="#DD9200" stroke-width="0.75" stroke-linecap="round" stroke-linejoin="round"/>
<path d="M30.162 6.57498L27.4541 38.9215" stroke="#FFF5A3" stroke-width="0.5625" stroke-linecap="round" stroke-linejoin="round"/>
<path d="M16.5201 11.6553C16.5047 12.1293 16.164 12.5029 15.7592 12.4897C15.3543 12.4765 15.0388 12.0815 15.0543 11.6075C15.0697 11.1335 15.4104 10.7599 15.8152 10.7731C16.22 10.7863 16.5356 11.1813 16.5201 11.6553Z" fill="url(#paint9_radial_2741_4592)"/>
<path d="M25.8652 11.2354C25.8493 11.7229 25.4914 12.1068 25.0657 12.0929C24.6401 12.079 24.3079 11.6726 24.3238 11.1851C24.3397 10.6976 24.6977 10.3137 25.1233 10.3276C25.5489 10.3415 25.8812 10.7479 25.8652 11.2354Z" fill="url(#paint10_radial_2741_4592)"/>
<path d="M15.7145 11.816C15.678 11.5637 15.6576 10.7064 15.9278 9.57582C16.3709 7.72135 17.6555 4.99472 18.8983 3.438C20.523 1.40297 22.0408 0.0544714 23.8791 0.360847C25.2823 0.594753 25.4465 2.36466 25.5161 4.85344C25.5653 6.6136 25.586 7.77047 25.5777 8.93982C25.5685 10.2451 25.5879 11.126 25.5346 11.4091C25.4812 11.6922 25.1899 11.7537 24.9683 11.5075C24.7761 11.294 24.7653 10.1461 24.7735 9.09985C24.7817 8.06541 24.7705 6.81619 24.7243 5.01347C24.6915 3.73341 24.6504 1.69013 23.1898 1.4686C22.0561 1.29666 20.4666 2.35088 19.2512 4.01241C17.4623 6.45769 16.7771 8.4106 16.4284 9.74813C16.1948 10.6437 16.2026 11.5306 16.2068 11.8118C16.211 12.0867 15.7637 12.1565 15.7145 11.816Z" fill="url(#paint11_linear_2741_4592)"/>
<path d="M15.4215 11.605C15.385 11.3528 15.3647 10.4955 15.6349 9.36488C16.0779 7.51041 17.3625 4.78378 18.6053 3.22707C20.23 1.19203 21.7478 -0.156466 23.5862 0.149909C24.9893 0.383816 25.1535 2.15372 25.2231 4.6425C25.2724 6.40266 25.293 7.55953 25.2847 8.72888C25.2755 10.0342 25.295 10.915 25.2416 11.1982C25.1883 11.4813 24.8969 11.5428 24.6754 11.2966C24.4832 11.083 24.4723 9.93516 24.4805 8.88891C24.4887 7.85447 24.4775 6.60525 24.4313 4.80253C24.3985 3.52247 24.3575 1.47919 22.8968 1.25766C21.7631 1.08572 20.1737 2.13994 18.9582 3.80147C17.1694 6.24675 16.4841 8.19966 16.1354 9.53719C15.9019 10.4328 15.9096 11.3197 15.9139 11.6009C15.918 11.8758 15.4707 11.9455 15.4215 11.605Z" fill="url(#paint12_linear_2741_4592)"/>
<path d="M15.6153 11.7858C15.6153 11.7858 15.0055 8.62142 14.967 6.0582C14.9342 3.87551 15.0493 1.92607 17.1907 1.88979C19.1272 1.85698 20.9161 3.16985 22.4751 5.76279C23.8996 8.13185 24.3953 9.9641 24.7235 11.6791C24.8778 12.485 23.9843 13.1093 23.7184 11.6463C23.5214 10.5631 23.0684 8.35376 21.6505 6.0582C20.2719 3.82629 18.6281 3.19357 17.4164 3.27654C16.2184 3.35857 15.9271 4.76173 15.9763 6.17313C16.0524 8.35451 16.2881 10.5468 16.4687 11.6709C16.6021 12.5015 15.7958 12.6392 15.6153 11.7858Z" fill="url(#paint13_linear_2741_4592)"/>
<path d="M15.252 11.8444C15.252 11.8444 14.6422 8.68001 14.6037 6.11679C14.5709 3.9341 14.686 1.98467 16.8275 1.94838C18.764 1.91557 20.5528 3.22845 22.1119 5.82138C23.5363 8.19045 24.032 10.0227 24.3603 11.7377C24.5145 12.5436 23.621 13.1679 23.3551 11.7049C23.1581 10.6217 22.7051 8.41235 21.2872 6.11679C19.9086 3.88488 18.2648 3.25217 17.0531 3.33513C15.8551 3.41717 15.5638 4.82032 15.613 6.23173C15.6891 8.4131 15.9248 10.6054 16.1054 11.7295C16.2388 12.5601 15.4325 12.6978 15.252 11.8444Z" fill="url(#paint14_linear_2741_4592)"/>
<path d="M27.6024 11.3357C27.6024 11.3357 30.6549 38.4472 30.3923 39.0708C30.1297 39.6944 23.598 36.9373 23.598 36.9373L21.3988 34.2787L21.3496 11.4588L27.6024 11.3357Z" fill="url(#paint15_linear_2741_4592)"/>
<path d="M27.6024 11.3357C27.6024 11.3357 30.6549 38.4472 30.3923 39.0708C30.1297 39.6944 23.598 36.9373 23.598 36.9373L21.3988 34.2787L21.3496 11.4588L27.6024 11.3357Z" fill="url(#paint16_linear_2741_4592)"/>
<g opacity="0.22">
<path d="M25.6374 17.0436C25.6559 17.5181 25.2112 17.9208 24.644 17.9429C24.0768 17.965 23.602 17.5982 23.5836 17.1237C23.5651 16.6492 24.0098 16.2466 24.577 16.2245C25.1442 16.2023 25.619 16.5692 25.6374 17.0436Z" fill="#FFFFFA"/>
<path d="M23.1636 12.8218C23.1821 13.2963 22.7373 13.6989 22.1701 13.7211C21.8511 13.7335 21.5565 13.6145 21.3607 13.4309C21.3553 13.1962 21.3554 12.5062 21.3525 12.3168C21.5338 12.1331 21.7984 12.0146 22.1031 12.0027C22.6703 11.9806 23.1451 12.3473 23.1636 12.8218Z" fill="#FFFFFA"/>
<path d="M27.8532 13.6139C27.7196 13.6746 27.5631 13.7148 27.4019 13.7211C26.8347 13.7432 26.3598 13.3763 26.3414 12.9019C26.3229 12.4274 26.7677 12.0247 27.3348 12.0026C27.4533 11.998 27.5678 12.0104 27.6749 12.0371C27.7084 12.3469 27.8153 13.254 27.8532 13.6139Z" fill="#FFFFFA"/>
<path d="M28.0173 21.2736C28.0358 21.7481 27.591 22.1508 27.0239 22.1729C26.4567 22.195 25.9819 21.8282 25.9634 21.3537C25.945 20.8792 26.3897 20.4766 26.9569 20.4545C27.5241 20.4323 27.9989 20.7992 28.0173 21.2736Z" fill="#FFFFFA"/>
<path d="M23.1272 21.2244C23.1457 21.6989 22.7012 22.1356 22.1337 22.1236C21.7965 22.1165 21.5368 22.0508 21.3769 21.9579C21.3815 21.6994 21.3647 20.6549 21.3739 20.5977C21.5262 20.5039 21.7667 20.4284 22.0668 20.4053C22.6328 20.3617 23.1087 20.75 23.1272 21.2244Z" fill="#FFFFFA"/>
<path d="M25.3913 25.4586C25.4098 25.933 24.9651 26.3357 24.3979 26.3578C23.8307 26.3799 23.3559 26.0131 23.3375 25.5386C23.319 25.0641 23.7638 24.6615 24.3309 24.6394C24.8981 24.6172 25.3729 24.9841 25.3913 25.4586Z" fill="#FFFFFA"/>
<path d="M29.2464 26.3904C28.6792 26.4125 28.2143 26.0458 28.1958 25.5714C28.1774 25.0969 28.6439 24.7224 29.0655 24.6948C29.1193 25.2009 29.212 26.0031 29.2464 26.3904Z" fill="#FFFFFA"/>
<path d="M27.7546 29.6763C27.7731 30.1507 27.3283 30.5534 26.7612 30.5755C26.194 30.5977 25.7192 30.2308 25.7008 29.7563C25.6823 29.2819 26.127 28.8792 26.6942 28.8571C27.2614 28.835 27.7362 29.2018 27.7546 29.6763Z" fill="#FFFFFA"/>
<path d="M28.9106 33.1398C29.4783 33.1398 29.9384 33.5248 29.9384 33.9996C29.9384 34.4745 29.4783 34.8595 28.9106 34.8595C28.3429 34.8595 27.8828 34.4745 27.8828 33.9996C27.8828 33.5248 28.3429 33.1398 28.9106 33.1398Z" fill="#FFFFFA"/>
<path d="M22.9462 29.627C22.9647 30.1014 22.52 30.5041 21.9528 30.5262C21.7508 30.5341 21.5547 30.4886 21.3926 30.4105C21.3906 30.0051 21.3893 29.1416 21.3897 28.9358C21.5331 28.8635 21.7077 28.8148 21.8857 28.8079C22.4529 28.7857 22.9278 29.1525 22.9462 29.627Z" fill="#FFFFFA"/>
<path d="M24.374 33.4498C24.374 33.4498 24.4665 33.2376 24.772 33.3431C25.449 33.577 25.5613 34.4919 25.5613 34.4919L24.374 33.4498Z" fill="#FFFFFA"/>
</g>
<path d="M21.3496 11.4587L27.6023 11.3357C27.6023 11.3357 30.3983 38.1889 30.497 39.2212" stroke="#D63AB1" stroke-width="0.75" stroke-linecap="round" stroke-linejoin="round"/>
<path d="M21.351 11.4587L21.433 37.6265L16.3291 40.2359L19.2339 11.3356L21.351 11.4587Z" fill="url(#paint17_linear_2741_4592)"/>
<g opacity="0.06">
<path d="M19.8284 29.8868C19.8124 30.3888 19.5594 30.7881 19.2635 30.7786C18.9675 30.7691 18.7406 30.3545 18.7567 29.8525C18.7727 29.3504 19.0256 28.9511 19.3216 28.9606C19.6176 28.9701 19.8444 29.3847 19.8284 29.8868Z" fill="#FFFFFA"/>
</g>
<g opacity="0.06">
<path d="M18.9876 25.7971C18.9674 26.2736 18.7453 26.651 18.4916 26.6402C18.2379 26.6294 18.0486 26.2346 18.0689 25.7581C18.0891 25.2817 18.3112 24.9042 18.5649 24.915C18.8186 24.9258 19.0079 25.3207 18.9876 25.7971Z" fill="#FFFFFA"/>
</g>
<g opacity="0.06">
<path d="M20.9997 25.5442C20.9817 25.9679 20.7743 26.3033 20.5363 26.2931C20.2983 26.283 20.12 25.9314 20.138 25.5076C20.156 25.0839 20.3633 24.7485 20.6014 24.7586C20.8394 24.7688 21.0177 25.1204 20.9997 25.5442Z" fill="#FFFFFA"/>
</g>
<g opacity="0.06">
<path d="M20.0353 21.4181C20.0146 21.9073 19.7572 22.2937 19.4607 22.2811C19.1642 22.2685 18.9406 21.8617 18.9613 21.3726C18.982 20.8834 19.2394 20.497 19.5359 20.5096C19.8324 20.5222 20.056 20.9289 20.0353 21.4181Z" fill="#FFFFFA"/>
</g>
<g opacity="0.06">
<path d="M21.1599 17.1308C21.1402 17.597 20.9302 17.9666 20.6909 17.9565C20.4517 17.9464 20.2737 17.5602 20.2935 17.094C20.3133 16.6278 20.5233 16.2581 20.7625 16.2683C21.0018 16.2784 21.1797 16.6645 21.1599 17.1308Z" fill="#FFFFFA"/>
</g>
<g opacity="0.06">
<path d="M19.453 17.1126C19.4327 17.5899 19.2223 17.9686 18.9831 17.9585C18.7438 17.9484 18.5663 17.5531 18.5865 17.0758C18.6068 16.5985 18.8172 16.2198 19.0564 16.2299C19.2957 16.24 19.4732 16.6353 19.453 17.1126Z" fill="#FFFFFA"/>
</g>
<g opacity="0.06">
<path d="M20.3873 12.8138C20.3675 13.2801 20.1654 13.6501 19.9359 13.6403C19.7064 13.6306 19.5365 13.2448 19.5563 12.7786C19.576 12.3124 19.7781 11.9423 20.0076 11.9521C20.2371 11.9618 20.407 12.3476 20.3873 12.8138Z" fill="#FFFFFA"/>
</g>
<g opacity="0.06">
<path d="M18.6197 34.5135C18.5976 35.033 18.3211 35.443 18.002 35.4295C17.683 35.416 17.4423 34.9838 17.4643 34.4644C17.4863 33.9449 17.7629 33.5348 18.0819 33.5483C18.4009 33.5618 18.6417 33.994 18.6197 34.5135Z" fill="#FFFFFA"/>
</g>
<path d="M19.2334 11.3356L21.3504 11.4587L21.4678 31.1009" stroke="#951B44" stroke-width="0.75" stroke-linecap="round" stroke-linejoin="round"/>
<path d="M16.4594 40.2851C16.0949 40.2428 16.4718 40.0471 16.5374 39.8789C16.7469 39.3421 21.4321 30.9307 21.4321 30.9307C21.4321 30.9307 30.2942 38.4799 30.3926 38.9065C30.4911 39.3332 30.063 39.3953 29.6131 39.4892C28.8664 39.6451 17.1651 40.3672 16.4594 40.2851Z" fill="url(#paint18_linear_2741_4592)"/>
<path d="M16.4594 40.2851C16.0949 40.2428 16.4717 40.0471 16.5373 39.8789C16.7469 39.3421 21.432 30.9307 21.432 30.9307C21.432 30.9307 30.0606 38.7366 30.5064 39.1494C30.671 39.3019 30.0246 39.299 29.5698 39.3409C28.8102 39.4108 17.1651 40.3672 16.4594 40.2851Z" fill="url(#paint19_linear_2741_4592)"/>
<g opacity="0.13">
<path d="M24.8227 38.3346C25.0143 38.8008 24.9018 39.2888 24.5716 39.4245C24.2413 39.5603 23.8183 39.2922 23.6267 38.826C23.435 38.3598 23.5475 37.8718 23.8778 37.7361C24.2081 37.6003 24.6311 37.8683 24.8227 38.3346Z" fill="#FFFFFA"/>
<path d="M21.8872 34.0822C22.0788 34.5484 21.9663 35.0363 21.636 35.1721C21.3057 35.3078 20.8827 35.0398 20.6911 34.5736C20.4995 34.1074 20.612 33.6194 20.9423 33.4837C21.2725 33.3479 21.6955 33.6159 21.8872 34.0822Z" fill="#FFFFFA"/>
<path d="M25.5611 34.492C25.5548 34.7365 25.4546 34.9437 25.2707 35.0393C24.954 35.204 24.5087 34.975 24.2762 34.5277C24.0437 34.0804 24.1195 33.5935 24.3738 33.4499C24.7226 33.7535 25.3257 34.2745 25.5611 34.492Z" fill="#FFFFFA"/>
<path d="M28.352 38.1521C28.5436 38.6183 28.4311 39.1063 28.1009 39.2421C27.7706 39.3778 27.3476 39.1098 27.156 38.6436C26.9643 38.1773 27.0768 37.6894 27.4071 37.5536C27.7374 37.4179 28.1604 37.6859 28.352 38.1521Z" fill="#FFFFFA"/>
<path d="M21.4253 38.5972C21.6169 39.0634 21.5044 39.5514 21.1741 39.6871C20.8438 39.8229 20.4208 39.5548 20.2292 39.0886C20.0376 38.6224 20.1501 38.1344 20.4804 37.9987C20.8106 37.8629 21.2336 38.1309 21.4253 38.5972Z" fill="#FFFFFA"/>
<path d="M17.9127 38.6464C18.1043 39.1126 17.9919 39.6006 17.6616 39.7363C17.3314 39.8721 17.0285 39.7421 16.8369 39.2759C17.0441 38.9005 17.2558 38.4934 17.4744 38.102C17.6494 38.2094 17.815 38.4087 17.9127 38.6464Z" fill="#FFFFFA"/>
</g>
<path d="M21.4326 30.9307L30.4979 39.1899" stroke="#BD2F8E" stroke-width="0.75" stroke-linecap="round" stroke-linejoin="round"/>
<path d="M16.3164 40.2789C16.3164 40.2789 29.9235 39.32 30.498 39.2213" stroke="#B01E70" stroke-width="0.75" stroke-linecap="round" stroke-linejoin="round"/>
<path d="M16.3164 40.2789L21.4325 30.9308" stroke="#A21A66" stroke-width="0.75" stroke-linecap="round" stroke-linejoin="round"/>
<path d="M4.11775 12.2219L19.2325 11.3357C19.2325 11.3357 16.6758 40.0039 16.3154 40.279C16.0815 40.4575 1.83119 38.6453 1.34425 38.2666C1.04885 38.0368 4.11775 12.2219 4.11775 12.2219Z" fill="url(#paint20_linear_2741_4592)"/>
<path d="M7.09298 12.0454L8.60367 11.9715C8.60367 11.9715 8.17186 15.7851 7.32745 15.4825C7.00008 15.3652 6.8677 14.6528 6.87745 14.3019C6.88542 14.0155 7.09298 12.0454 7.09298 12.0454Z" fill="url(#paint21_linear_2741_4592)"/>
<path d="M14.6097 11.6168L16.1907 11.5636C16.1907 11.5636 15.6723 15.6561 14.7985 15.282C14.4714 15.1419 14.3845 14.7371 14.3943 14.3172C14.4022 13.9744 14.6097 11.6168 14.6097 11.6168Z" fill="url(#paint22_linear_2741_4592)"/>
<g opacity="0.25">
<path d="M12.9762 38.4427C12.9281 38.904 12.6746 39.2555 12.4099 39.2279C12.1453 39.2003 11.9696 38.804 12.0177 38.3428C12.0658 37.8815 12.3193 37.5301 12.5839 37.5576C12.8486 37.5852 13.0243 37.9815 12.9762 38.4427Z" fill="#FDFFFF"/>
<path d="M15.3024 38.8366C15.2543 39.2978 15.0008 39.6493 14.7361 39.6217C14.4715 39.5942 14.2958 39.1979 14.3439 38.7367C14.392 38.2754 14.6455 37.9239 14.9101 37.9515C15.1748 37.9791 15.3505 38.3753 15.3024 38.8366Z" fill="#FDFFFF"/>
<path d="M13.9615 29.9376C13.9135 30.3988 13.66 30.7503 13.3953 30.7227C13.1306 30.6952 12.955 30.2989 13.003 29.8376C13.0511 29.3764 13.3046 29.0249 13.5693 29.0525C13.834 29.08 14.0096 29.4763 13.9615 29.9376Z" fill="#FDFFFF"/>
<path d="M16.3121 30.0484C16.264 30.5096 16.0105 30.8611 15.7459 30.8335C15.4812 30.8059 15.3055 30.4097 15.3536 29.9484C15.4017 29.4872 15.6552 29.1357 15.9199 29.1633C16.1845 29.1908 16.3602 29.5871 16.3121 30.0484Z" fill="#FDFFFF"/>
<path d="M4.08563 21.3593C4.04326 21.766 3.81976 22.076 3.58632 22.0517C3.35288 22.0274 3.19801 21.6779 3.24038 21.2712C3.28276 20.8645 3.50626 20.5546 3.73969 20.5789C3.97313 20.6031 4.12801 20.9526 4.08563 21.3593Z" fill="#FDFFFF"/>
<path d="M6.11841 21.3568C6.07303 21.7922 5.83369 22.1241 5.58384 22.098C5.334 22.0719 5.16816 21.6979 5.21353 21.2625C5.25891 20.8271 5.49825 20.4953 5.74809 20.5213C5.99794 20.5474 6.16378 20.9214 6.11841 21.3568Z" fill="#FDFFFF"/>
<path d="M8.22801 21.3455C8.18151 21.7917 7.93626 22.1319 7.68013 22.1052C7.42401 22.0785 7.25413 21.6951 7.30063 21.249C7.34713 20.8028 7.59238 20.4626 7.84851 20.4893C8.10463 20.516 8.27451 20.8994 8.22801 21.3455Z" fill="#FDFFFF"/>
<path d="M10.3707 21.3681C10.3238 21.8181 10.0764 22.1612 9.81815 22.1343C9.55987 22.1074 9.38858 21.7206 9.43546 21.2706C9.48233 20.8206 9.72974 20.4776 9.98802 20.5045C10.2463 20.5314 10.4176 20.9181 10.3707 21.3681Z" fill="#FDFFFF"/>
<path d="M12.5694 21.381C12.5225 21.8307 12.2753 22.1735 12.0172 22.1466C11.7591 22.1196 11.5878 21.7334 11.6347 21.2837C11.6816 20.834 11.9288 20.4912 12.1869 20.5181C12.445 20.545 12.6162 20.9313 12.5694 21.381Z" fill="#FDFFFF"/>
<path d="M3.18622 29.1244C3.14384 29.5311 2.92034 29.841 2.6869 29.8167C2.45347 29.7924 2.29859 29.4429 2.34097 29.0362C2.38334 28.6296 2.60684 28.3196 2.84028 28.3439C3.07372 28.3682 3.22859 28.7177 3.18622 29.1244Z" fill="#FDFFFF"/>
<path d="M5.1936 29.3326C5.14823 29.768 4.90888 30.0998 4.65904 30.0738C4.4092 30.0477 4.24335 29.6736 4.28873 29.2383C4.3341 28.8029 4.57345 28.471 4.82329 28.4971C5.07313 28.5231 5.23898 28.8972 5.1936 29.3326Z" fill="#FDFFFF"/>
<path d="M7.26902 29.4691C7.22252 29.9153 6.97727 30.2555 6.72115 30.2288C6.46502 30.202 6.29515 29.8187 6.34165 29.3725C6.38815 28.9264 6.6334 28.5862 6.88952 28.6129C7.14565 28.6396 7.31552 29.023 7.26902 29.4691Z" fill="#FDFFFF"/>
<path d="M9.45176 29.6066C9.40489 30.0566 9.15748 30.3997 8.8992 30.3727C8.64092 30.3458 8.46964 29.9591 8.51651 29.5091C8.56339 29.0591 8.8108 28.7161 9.06908 28.743C9.32736 28.7699 9.49864 29.1566 9.45176 29.6066Z" fill="#FDFFFF"/>
<path d="M11.6748 29.759C11.628 30.2087 11.3807 30.5514 11.1226 30.5245C10.8646 30.4976 10.6933 30.1114 10.7401 29.6617C10.787 29.2119 11.0342 28.8692 11.2923 28.8961C11.5504 28.923 11.7217 29.3092 11.6748 29.759Z" fill="#FDFFFF"/>
<path d="M2.32391 37.0305C2.28154 37.4372 2.05804 37.7471 1.8246 37.7228C1.59116 37.6986 1.43629 37.3491 1.47866 36.9424C1.52104 36.5357 1.74454 36.2257 1.97797 36.25C2.21141 36.2743 2.36629 36.6238 2.32391 37.0305Z" fill="#FDFFFF"/>
<path d="M4.28247 37.292C4.23709 37.7274 3.99775 38.0593 3.74791 38.0332C3.49806 38.0072 3.33222 37.6331 3.37759 37.1977C3.42297 36.7624 3.66231 36.4305 3.91216 36.4565C4.162 36.4826 4.32784 36.8567 4.28247 37.292Z" fill="#FDFFFF"/>
<path d="M6.37059 37.523C6.32409 37.9691 6.07884 38.3093 5.82271 38.2826C5.56659 38.2559 5.39671 37.8726 5.44321 37.4264C5.48971 36.9802 5.73496 36.64 5.99109 36.6667C6.24721 36.6935 6.41709 37.0768 6.37059 37.523Z" fill="#FDFFFF"/>
<path d="M8.46641 37.8574C8.41954 38.3074 8.17213 38.6505 7.91385 38.6236C7.65557 38.5967 7.48429 38.2099 7.53116 37.7599C7.57804 37.3099 7.82544 36.9669 8.08373 36.9938C8.34201 37.0207 8.51329 37.4074 8.46641 37.8574Z" fill="#FDFFFF"/>
<path d="M10.6778 38.1574C10.6309 38.6071 10.3837 38.9498 10.1256 38.9229C9.86748 38.896 9.6962 38.5098 9.74308 38.06C9.78995 37.6103 10.0372 37.2676 10.2953 37.2945C10.5534 37.3214 10.7246 37.7076 10.6778 38.1574Z" fill="#FDFFFF"/>
<path d="M14.8893 21.4161C14.8412 21.8773 14.5877 22.2288 14.323 22.2012C14.0584 22.1737 13.8827 21.7774 13.9308 21.3161C13.9789 20.8549 14.2324 20.5034 14.497 20.531C14.7617 20.5585 14.9374 20.9548 14.8893 21.4161Z" fill="#FDFFFF"/>
<path d="M5.51337 17.4945C5.47099 17.9012 5.24749 18.2111 5.01405 18.1868C4.78062 18.1626 4.62574 17.8131 4.66812 17.4064C4.71049 16.9997 4.93399 16.6897 5.16743 16.714C5.40087 16.7383 5.55574 17.0878 5.51337 17.4945Z" fill="#FDFFFF"/>
<path d="M7.60473 17.4181C7.55936 17.8535 7.32002 18.1853 7.07017 18.1593C6.82033 18.1332 6.65448 17.7592 6.69986 17.3238C6.74523 16.8884 6.98458 16.5565 7.23442 16.5826C7.48427 16.6087 7.65011 16.9827 7.60473 17.4181Z" fill="#FDFFFF"/>
<path d="M9.76316 17.3083C9.71666 17.7545 9.47141 18.0947 9.21529 18.068C8.95916 18.0413 8.78929 17.6579 8.83579 17.2118C8.88229 16.7656 9.12754 16.4254 9.38366 16.4521C9.63979 16.4788 9.80966 16.8622 9.76316 17.3083Z" fill="#FDFFFF"/>
<path d="M11.9869 17.29C11.94 17.74 11.6926 18.083 11.4344 18.0561C11.1761 18.0292 11.0048 17.6425 11.0517 17.1925C11.0985 16.7425 11.346 16.3995 11.6042 16.4264C11.8625 16.4533 12.0338 16.84 11.9869 17.29Z" fill="#FDFFFF"/>
<path d="M14.2266 17.1961C14.1797 17.6458 13.9325 17.9886 13.6744 17.9616C13.4163 17.9347 13.245 17.5485 13.2919 17.0988C13.3388 16.6491 13.586 16.3063 13.8441 16.3332C14.1022 16.3601 14.2735 16.7464 14.2266 17.1961Z" fill="#FDFFFF"/>
<path d="M16.5865 17.1737C16.5385 17.6349 16.285 17.9864 16.0203 17.9588C15.7556 17.9313 15.58 17.535 15.628 17.0737C15.6761 16.6125 15.9296 16.261 16.1943 16.2886C16.459 16.3161 16.6346 16.7124 16.5865 17.1737Z" fill="#FDFFFF"/>
<path d="M18.7972 17.1041C18.7464 17.5914 18.64 18.0033 18.3603 17.9741C18.0807 17.945 17.8951 17.5263 17.9459 17.039C17.9967 16.5517 18.2645 16.1802 18.5442 16.2094C18.8238 16.2385 18.848 16.6168 18.7972 17.1041Z" fill="#FDFFFF"/>
<path d="M4.63544 25.3145C4.59306 25.7211 4.36956 26.0311 4.13612 26.0068C3.90269 25.9825 3.74781 25.633 3.79019 25.2263C3.83256 24.8196 4.05606 24.5097 4.2895 24.534C4.52294 24.5583 4.67781 24.9078 4.63544 25.3145Z" fill="#FDFFFF"/>
<path d="M6.68579 25.3858C6.64041 25.8212 6.40107 26.153 6.15123 26.127C5.90138 26.1009 5.73554 25.7269 5.78091 25.2915C5.82629 24.8561 6.06563 24.5242 6.31548 24.5503C6.56532 24.5764 6.73116 24.9504 6.68579 25.3858Z" fill="#FDFFFF"/>
<path d="M8.86863 25.5058C8.82213 25.952 8.57688 26.2922 8.32076 26.2655C8.06463 26.2387 7.89476 25.8554 7.94126 25.4092C7.98776 24.9631 8.23301 24.6229 8.48913 24.6496C8.74526 24.6763 8.91513 25.0597 8.86863 25.5058Z" fill="#FDFFFF"/>
<path d="M10.9938 25.5449C10.9469 25.9949 10.6995 26.3379 10.4412 26.311C10.1829 26.2841 10.0116 25.8974 10.0585 25.4474C10.1054 24.9974 10.3528 24.6544 10.6111 24.6813C10.8694 24.7082 11.0406 25.0949 10.9938 25.5449Z" fill="#FDFFFF"/>
<path d="M13.2744 25.6233C13.2276 26.073 12.9804 26.4158 12.7223 26.3888C12.4642 26.3619 12.2929 25.9757 12.3398 25.526C12.3866 25.0763 12.6339 24.7335 12.8919 24.7604C13.15 24.7873 13.3213 25.1736 13.2744 25.6233Z" fill="#FDFFFF"/>
<path d="M15.5778 25.7158C15.5297 26.1771 15.2762 26.5285 15.0115 26.501C14.7468 26.4734 14.5712 26.0771 14.6193 25.6159C14.6673 25.1546 14.9208 24.8031 15.1855 24.8307C15.4502 24.8583 15.6258 25.2546 15.5778 25.7158Z" fill="#FDFFFF"/>
<path d="M17.9988 25.8507C17.948 26.338 17.68 26.7095 17.4004 26.6803C17.1207 26.6511 16.9351 26.2325 16.9859 25.7451C17.0367 25.2578 17.3047 24.8864 17.5843 24.9155C17.864 24.9447 18.0496 25.3634 17.9988 25.8507Z" fill="#FDFFFF"/>
<path d="M3.69305 33.223C3.65068 33.6297 3.42718 33.9397 3.19374 33.9154C2.9603 33.8911 2.80543 33.5416 2.8478 33.1349C2.89018 32.7282 3.11368 32.4183 3.34712 32.4426C3.58055 32.4668 3.73543 32.8163 3.69305 33.223Z" fill="#FDFFFF"/>
<path d="M5.81079 33.3867C5.76541 33.8221 5.52607 34.154 5.27623 34.1279C5.02638 34.1018 4.86054 33.7278 4.90591 33.2924C4.95129 32.857 5.19063 32.5251 5.44048 32.5512C5.69032 32.5773 5.85616 32.9513 5.81079 33.3867Z" fill="#FDFFFF"/>
<path d="M7.90184 33.6051C7.85534 34.0513 7.61009 34.3915 7.35396 34.3648C7.09784 34.3381 6.92796 33.9547 6.97446 33.5086C7.02096 33.0624 7.26621 32.7222 7.52234 32.7489C7.77846 32.7756 7.94834 33.159 7.90184 33.6051Z" fill="#FDFFFF"/>
<path d="M10.026 33.8719C9.97911 34.3219 9.7317 34.665 9.47342 34.6381C9.21514 34.6112 9.04386 34.2244 9.09073 33.7744C9.13761 33.3244 9.38501 32.9814 9.6433 33.0083C9.90158 33.0352 10.0729 33.4219 10.026 33.8719Z" fill="#FDFFFF"/>
<path d="M12.2725 34.1309C12.2256 34.5806 11.9784 34.9234 11.7203 34.8965C11.4622 34.8696 11.2909 34.4833 11.3378 34.0336C11.3847 33.5839 11.6319 33.2411 11.89 33.268C12.1481 33.2949 12.3194 33.6812 12.2725 34.1309Z" fill="#FDFFFF"/>
<path d="M14.609 34.3383C14.5609 34.7995 14.3074 35.151 14.0428 35.1234C13.7781 35.0959 13.6024 34.6996 13.6505 34.2383C13.6986 33.7771 13.9521 33.4256 14.2168 33.4532C14.4814 33.4807 14.6571 33.877 14.609 34.3383Z" fill="#FDFFFF"/>
<path d="M17.0134 34.5471C16.9626 35.0344 16.6947 35.4058 16.415 35.3766C16.1354 35.3475 15.9498 34.9288 16.0006 34.4415C16.0514 33.9542 16.3193 33.5827 16.599 33.6119C16.8786 33.6411 17.0643 34.0597 17.0134 34.5471Z" fill="#FDFFFF"/>
<path d="M17.2828 21.4817C17.2347 21.9429 16.9812 22.2944 16.7166 22.2668C16.4519 22.2393 16.2762 21.843 16.3243 21.3817C16.3724 20.9205 16.6259 20.569 16.8906 20.5966C17.1552 20.6241 17.3309 21.0204 17.2828 21.4817Z" fill="#FDFFFF"/>
<path d="M5.05829 13.5526C5.01591 13.9593 4.79241 14.2692 4.55897 14.2449C4.32554 14.2206 4.17066 13.8711 4.21304 13.4645C4.25541 13.0578 4.47891 12.7478 4.71235 12.7721C4.94579 12.7964 5.10066 13.1459 5.05829 13.5526Z" fill="#FDFFFF"/>
<path d="M7.11352 13.5122C7.06815 13.9475 6.8288 14.2794 6.57896 14.2534C6.32912 14.2273 6.16327 13.8532 6.20865 13.4179C6.25402 12.9825 6.49337 12.6506 6.74321 12.6767C6.99305 12.7027 7.1589 13.0768 7.11352 13.5122Z" fill="#FDFFFF"/>
<path d="M9.17625 13.3911C9.12975 13.8373 8.8845 14.1775 8.62838 14.1508C8.37225 14.1241 8.20238 13.7407 8.24888 13.2946C8.29538 12.8484 8.54063 12.5082 8.79675 12.5349C9.05288 12.5616 9.22275 12.945 9.17625 13.3911Z" fill="#FDFFFF"/>
<path d="M11.3063 13.2661C11.2594 13.7161 11.012 14.0591 10.7537 14.0322C10.4954 14.0053 10.3241 13.6186 10.371 13.1686C10.4179 12.7186 10.6653 12.3755 10.9236 12.4025C11.1819 12.4294 11.3531 12.8161 11.3063 13.2661Z" fill="#FDFFFF"/>
<path d="M13.5782 13.1804C13.5313 13.6301 13.2841 13.9729 13.026 13.946C12.7679 13.9191 12.5966 13.5328 12.6435 13.0831C12.6903 12.6334 12.9376 12.2906 13.1957 12.3175C13.4537 12.3444 13.625 12.7307 13.5782 13.1804Z" fill="#FDFFFF"/>
<path d="M15.9108 13.0185C15.8627 13.4797 15.6092 13.8312 15.3445 13.8036C15.0799 13.7761 14.9042 13.3798 14.9523 12.9185C15.0004 12.4573 15.2539 12.1058 15.5185 12.1334C15.7832 12.1609 15.9589 12.5572 15.9108 13.0185Z" fill="#FDFFFF"/>
<path d="M18.2174 12.838C18.1693 13.2993 17.9158 13.6507 17.6512 13.6232C17.3865 13.5956 17.2108 13.1993 17.2589 12.7381C17.307 12.2768 17.5605 11.9254 17.8252 11.9529C18.0898 11.9805 18.2655 12.3768 18.2174 12.838Z" fill="#FDFFFF"/>
</g>
<path d="M16.3154 40.279C16.0815 40.4575 1.83119 38.6453 1.34425 38.2666C1.04885 38.0368 4.11775 12.2219 4.11775 12.2219L19.2325 11.3357" stroke="#D63AB1" stroke-width="0.75" stroke-linecap="round" stroke-linejoin="round"/>
<path d="M19.2326 11.3356L16.3154 40.279" stroke="#FFC0F0" stroke-width="0.5625" stroke-linecap="round" stroke-linejoin="round"/>
<path d="M7.7281 15.5436C7.71141 16.0542 7.40851 16.4587 7.05151 16.4471C6.69451 16.4354 6.4186 16.0121 6.43529 15.5014C6.45198 14.9907 6.75488 14.5863 7.11188 14.5979C7.46888 14.6096 7.74479 15.0329 7.7281 15.5436Z" fill="url(#paint23_radial_2741_4592)"/>
<path d="M15.1279 15.2826C15.1104 15.82 14.7762 16.2452 14.3816 16.2324C13.9871 16.2195 13.6814 15.7734 13.699 15.2359C13.7165 14.6984 14.0506 14.2733 14.4452 14.2861C14.8398 14.299 15.1454 14.7451 15.1279 15.2826Z" fill="url(#paint24_radial_2741_4592)"/>
<path d="M7.30171 16.0896C6.75374 15.8202 6.76593 15.1304 6.81431 13.7275C6.87627 11.9305 7.66893 7.52664 9.41821 5.01452C11.1305 2.55555 13.5757 1.70214 15.394 2.12617C17.3684 2.58658 17.0708 5.44399 15.7872 8.29952C14.9096 10.2519 14.6254 11.5039 14.5809 12.9152C14.5313 14.4907 15.0231 15.1328 15.0231 15.1328C15.0231 15.1328 15.2615 15.8906 14.741 15.8546C14.625 15.8546 13.8506 15.4261 13.8135 13.3445C13.7706 10.9414 14.5294 8.77202 15.1964 6.78555C15.7626 5.09927 15.6727 3.7923 14.6171 3.51292C13.108 3.11355 11.155 3.91774 9.80934 5.92811C7.98852 8.64817 7.34531 12.1998 7.29027 13.7317C7.24106 15.102 7.69537 15.5417 7.69537 15.5417C7.69537 15.5417 7.74984 16.33 7.30171 16.0896Z" fill="url(#paint25_linear_2741_4592)"/>
<path d="M7.15539 16.0075C6.82304 15.8701 6.50832 14.9195 6.5567 13.5166C6.61867 11.7196 7.41132 7.31571 9.16061 4.80358C10.8729 2.34461 13.3181 1.49121 15.1364 1.91524C17.1108 2.37564 16.8132 5.23305 15.5296 8.08858C14.652 10.0409 14.3678 11.293 14.3233 12.7043C14.2737 14.2797 14.8593 15.1035 14.8593 15.1035C14.8593 15.1035 15.1504 15.8614 14.5244 15.714C14.4084 15.714 13.593 15.2152 13.5559 13.1335C13.513 10.7305 14.2718 8.56108 14.9388 6.57461C15.5049 4.88833 15.4151 3.58136 14.3595 3.30199C12.8504 2.90261 10.8974 3.7068 9.55173 5.71717C7.73092 8.43724 7.0877 11.9889 7.03267 13.5207C6.98345 14.8911 7.42023 15.4714 7.42023 15.4714C7.42023 15.4714 7.67964 16.1015 7.15539 16.0075Z" fill="url(#paint26_linear_2741_4592)"/>
<defs>
<linearGradient id="paint0_linear_2741_4592" x1="29.5505" y1="0.594919" x2="30.2875" y2="8.17723" gradientUnits="userSpaceOnUse">
<stop offset="0.36" stop-color="#E29029"/>
<stop offset="0.62" stop-color="#CB7D34"/>
<stop offset="0.88" stop-color="#B36A3F"/>
</linearGradient>
<linearGradient id="paint1_linear_2741_4592" x1="29.2458" y1="0.430857" x2="29.9828" y2="8.01317" gradientUnits="userSpaceOnUse">
<stop offset="0.36" stop-color="#F5BC40"/>
<stop offset="0.62" stop-color="#EC9E3E"/>
<stop offset="0.88" stop-color="#E3813C"/>
</linearGradient>
<linearGradient id="paint2_linear_2741_4592" x1="34.7779" y1="8.86838" x2="36.5231" y2="33.6515" gradientUnits="userSpaceOnUse">
<stop stop-color="#F9DE3C"/>
<stop offset="0.5" stop-color="#F1BC2E"/>
<stop offset="1" stop-color="#E99B20"/>
</linearGradient>
<linearGradient id="paint3_linear_2741_4592" x1="29.5284" y1="22.7433" x2="31.3018" y2="22.833" gradientUnits="userSpaceOnUse">
<stop stop-color="#BF5705"/>
<stop offset="0.46" stop-color="#B44E04"/>
<stop offset="1" stop-color="#A84503"/>
</linearGradient>
<linearGradient id="paint4_linear_2741_4592" x1="11.5279" y1="21.2433" x2="28.7694" y2="22.7026" gradientUnits="userSpaceOnUse">
<stop stop-color="#FAC92A"/>
<stop offset="0.47" stop-color="#F9CD2F"/>
<stop offset="0.95" stop-color="#F8D034"/>
</linearGradient>
<linearGradient id="paint5_linear_2741_4592" x1="15.6991" y1="9.4426" x2="18.7761" y2="10.1985" gradientUnits="userSpaceOnUse">
<stop offset="0.26" stop-color="#723C24"/>
<stop offset="0.35" stop-color="#B57A35" stop-opacity="0.5"/>
<stop offset="0.45" stop-color="#F8B845" stop-opacity="0"/>
</linearGradient>
<linearGradient id="paint6_linear_2741_4592" x1="25.0622" y1="9.11445" x2="27.6439" y2="9.25995" gradientUnits="userSpaceOnUse">
<stop offset="0.21" stop-color="#723C24"/>
<stop offset="0.33" stop-color="#B57A35" stop-opacity="0.5"/>
<stop offset="0.45" stop-color="#F8B845" stop-opacity="0"/>
</linearGradient>
<radialGradient id="paint7_radial_2741_4592" cx="0" cy="0" r="1" gradientUnits="userSpaceOnUse" gradientTransform="translate(23.5982 10.2628) scale(5.5332)">
<stop offset="0.62" stop-color="white" stop-opacity="0"/>
<stop offset="0.72" stop-color="white" stop-opacity="0.5"/>
<stop offset="0.82" stop-color="white"/>
<stop offset="0.91" stop-color="white" stop-opacity="0.5"/>
<stop offset="1" stop-color="white" stop-opacity="0"/>
</radialGradient>
<radialGradient id="paint8_radial_2741_4592" cx="0" cy="0" r="1" gradientUnits="userSpaceOnUse" gradientTransform="translate(23.5982 10.2628) scale(5.5332)">
<stop offset="0.63" stop-color="#FAC92A"/>
<stop offset="0.81" stop-color="#D79815"/>
<stop offset="1" stop-color="#B46700"/>
</radialGradient>
<radialGradient id="paint9_radial_2741_4592" cx="0" cy="0" r="1" gradientUnits="userSpaceOnUse" gradientTransform="translate(13.8201 19.0986) scale(8.39778)">
<stop stop-color="#D37D42"/>
<stop offset="0.5" stop-color="#B05F32"/>
<stop offset="1" stop-color="#8E4123"/>
</radialGradient>
<radialGradient id="paint10_radial_2741_4592" cx="0" cy="0" r="1" gradientUnits="userSpaceOnUse" gradientTransform="translate(55.1389 11.0919) scale(34.5885 34.5885)">
<stop stop-color="#D37D42"/>
<stop offset="0.5" stop-color="#B05F32"/>
<stop offset="1" stop-color="#8E4123"/>
</radialGradient>
<linearGradient id="paint11_linear_2741_4592" x1="20.891" y1="0.641815" x2="20.539" y2="11.5265" gradientUnits="userSpaceOnUse">
<stop offset="0.26" stop-color="#E0A020"/>
<stop offset="0.58" stop-color="#DC8913"/>
<stop offset="0.91" stop-color="#D97207"/>
</linearGradient>
<linearGradient id="paint12_linear_2741_4592" x1="20.598" y1="0.430878" x2="20.246" y2="11.3155" gradientUnits="userSpaceOnUse">
<stop offset="0.26" stop-color="#FFD162"/>
<stop offset="0.58" stop-color="#FFBF4A"/>
<stop offset="0.91" stop-color="#FFAE31"/>
</linearGradient>
<linearGradient id="paint13_linear_2741_4592" x1="18.7937" y1="2.92132" x2="20.4196" y2="13.5882" gradientUnits="userSpaceOnUse">
<stop offset="0.35" stop-color="#BD5BAB"/>
<stop offset="0.67" stop-color="#B34696"/>
<stop offset="1" stop-color="#A93081"/>
</linearGradient>
<linearGradient id="paint14_linear_2741_4592" x1="18.4304" y1="2.97992" x2="20.0563" y2="13.6468" gradientUnits="userSpaceOnUse">
<stop offset="0.29" stop-color="#E771C6"/>
<stop offset="0.64" stop-color="#D85DB2"/>
<stop offset="1" stop-color="#C8489E"/>
</linearGradient>
<linearGradient id="paint15_linear_2741_4592" x1="24.4312" y1="12.3549" x2="25.4806" y2="30.2353" gradientUnits="userSpaceOnUse">
<stop stop-color="#FD8DE6"/>
<stop offset="0.49" stop-color="#FB75D4"/>
<stop offset="0.99" stop-color="#F95DC2"/>
</linearGradient>
<linearGradient id="paint16_linear_2741_4592" x1="21.5249" y1="25.6674" x2="29.0724" y2="24.9329" gradientUnits="userSpaceOnUse">
<stop offset="0.24" stop-color="#DE59B3"/>
<stop offset="0.35" stop-color="#EB61BE" stop-opacity="0.5"/>
<stop offset="0.46" stop-color="#F769C9" stop-opacity="0"/>
</linearGradient>
<linearGradient id="paint17_linear_2741_4592" x1="21.9013" y1="25.3862" x2="18.7011" y2="25.6323" gradientUnits="userSpaceOnUse">
<stop stop-color="#9A124E"/>
<stop offset="0.46" stop-color="#B1185C"/>
<stop offset="1" stop-color="#C81F69"/>
</linearGradient>
<linearGradient id="paint18_linear_2741_4592" x1="19.4628" y1="34.9486" x2="22.6646" y2="38.7751" gradientUnits="userSpaceOnUse">
<stop offset="0.03" stop-color="#6C1839"/>
<stop offset="0.38" stop-color="#B23982" stop-opacity="0.52"/>
<stop offset="0.73" stop-color="#F85ACB" stop-opacity="0.04"/>
</linearGradient>
<linearGradient id="paint19_linear_2741_4592" x1="23.4003" y1="39.8236" x2="23.3004" y2="38.1201" gradientUnits="userSpaceOnUse">
<stop offset="0.26" stop-color="#DE62B4"/>
<stop offset="0.58" stop-color="#CF51A4"/>
<stop offset="0.91" stop-color="#BF4095"/>
</linearGradient>
<linearGradient id="paint20_linear_2741_4592" x1="11.7749" y1="12.5424" x2="8.70138" y2="39.3471" gradientUnits="userSpaceOnUse">
<stop offset="0.12" stop-color="#FC5BCC"/>
<stop offset="0.54" stop-color="#FC5BCC"/>
<stop offset="0.96" stop-color="#FC5BCC"/>
<stop offset="0.99" stop-color="#EE3FB7"/>
<stop offset="1" stop-color="#E024A2"/>
</linearGradient>
<linearGradient id="paint21_linear_2741_4592" x1="7.11155" y1="13.6205" x2="8.84414" y2="13.9162" gradientUnits="userSpaceOnUse">
<stop offset="0.03" stop-color="#6C1839"/>
<stop offset="0.38" stop-color="#B23982" stop-opacity="0.52"/>
<stop offset="0.73" stop-color="#F85ACB" stop-opacity="0.04"/>
</linearGradient>
<linearGradient id="paint22_linear_2741_4592" x1="14.4596" y1="13.3392" x2="15.9025" y2="13.4918" gradientUnits="userSpaceOnUse">
<stop offset="0.03" stop-color="#6C1839"/>
<stop offset="0.38" stop-color="#B23982" stop-opacity="0.52"/>
<stop offset="0.73" stop-color="#F85ACB" stop-opacity="0.04"/>
</linearGradient>
<radialGradient id="paint23_radial_2741_4592" cx="0" cy="0" r="1" gradientUnits="userSpaceOnUse" gradientTransform="translate(-5.30821 29.6007) scale(28.2358)">
<stop stop-color="#A02354"/>
<stop offset="0.5" stop-color="#8F1342"/>
<stop offset="1" stop-color="#7D0430"/>
</radialGradient>
<radialGradient id="paint24_radial_2741_4592" cx="0" cy="0" r="1" gradientUnits="userSpaceOnUse" gradientTransform="translate(9.1743 19.3164) scale(12.5329 12.5329)">
<stop stop-color="#AD1751"/>
<stop offset="0.5" stop-color="#880D2A"/>
<stop offset="1" stop-color="#620404"/>
</radialGradient>
<linearGradient id="paint25_linear_2741_4592" x1="13.5097" y1="2.20652" x2="10.4901" y2="15.9591" gradientUnits="userSpaceOnUse">
<stop offset="0.26" stop-color="#DE62B4"/>
<stop offset="0.58" stop-color="#CF51A4"/>
<stop offset="0.91" stop-color="#BF4095"/>
</linearGradient>
<linearGradient id="paint26_linear_2741_4592" x1="13.2521" y1="1.99558" x2="10.2325" y2="15.7481" gradientUnits="userSpaceOnUse">
<stop offset="0.26" stop-color="#FF9CDD"/>
<stop offset="0.58" stop-color="#F580CE"/>
<stop offset="0.91" stop-color="#EB64BE"/>
</linearGradient>
</defs>
</svg>
