<svg width="0" height="0" style="display: none">

<symbol id="add" viewBox="0 0 16 16" fill="none" xmlns="http://www.w3.org/2000/svg">
    <path d="M9 1.5C9 0.947715 8.55229 0.5 8 0.5C7.44772 0.5 7 0.947715 7 1.5V7H1.5C0.947715 7 0.5 7.44771 0.5 8C0.5 8.55228 0.947715 9 1.5 9H7V14.5C7 15.0523 7.44772 15.5 8 15.5C8.55229 15.5 9 15.0523 9 14.5V9H14.5C15.0523 9 15.5 8.55229 15.5 8C15.5 7.44772 15.0523 7 14.5 7H9V1.5Z" fill="currentColor"/>
</symbol>

<symbol id="aya" viewBox="0 0 65 24" fill="none" xmlns="http://www.w3.org/2000/svg">
    <g clip-path="url(#clip0_2210_366)">
        <mask  style="mask-type:luminance" maskUnits="userSpaceOnUse" x="0" y="0" width="65" height="24">
            <path d="M64.4211 0H0V24H64.4211V0Z" fill="white"/>
        </mask>
        <g mask="url(#mask0_2210_366)">
            <path d="M63.7047 15.1903L57.3179 3.06455C56.8519 2.1297 56.1607 1.34871 55.2979 0.802792C54.058 0.0186717 52.6144 -0.189854 51.2321 0.216264C49.8498 0.622382 48.6941 1.59394 47.9787 2.95287L41.5323 15.1911C40.0553 17.9957 40.9352 21.5945 43.4933 23.2134C44.3077 23.7289 45.2326 24.0007 46.1681 24.0007C48.0784 24.0007 49.8583 22.8753 50.8124 21.0634L52.6187 17.634L54.4249 21.0634C55.3791 22.8753 57.159 24.0007 59.0693 24.0007C60.0048 24.0007 60.9297 23.7281 61.7441 23.2134C64.3028 21.5945 65.182 17.9957 63.7047 15.1911V15.1903ZM49.5783 20.2816C48.8779 21.6116 47.5711 22.4379 46.1681 22.4379C45.4827 22.4379 44.8036 22.238 44.2058 21.86C42.3276 20.6713 41.682 18.03 42.7664 15.9713L49.2128 3.73308C49.7379 2.73576 50.5858 2.02271 51.6005 1.72437C51.9389 1.62518 52.2831 1.57598 52.6244 1.57598C53.3056 1.57598 53.9782 1.77201 54.5846 2.15548C55.1924 2.54051 55.684 3.0833 56.0246 3.73308L56.0681 3.81587C56.217 4.11499 56.3353 4.4352 56.4172 4.77337C56.6894 5.88551 56.5498 7.04685 56.0246 8.04418L49.5783 20.2824V20.2816ZM61.0316 21.8592C60.4338 22.2372 59.7555 22.4372 59.0693 22.4372C57.6663 22.4372 56.3595 21.6109 55.6591 20.2808L53.4417 16.0705L57.2587 8.82361C57.5316 8.30584 57.7276 7.75523 57.8451 7.18902L62.4709 15.9705C63.5557 18.0292 62.9091 20.6705 61.0316 21.8592Z" fill="currentColor"/>
            <path d="M42.7572 2.02509C40.8226 -0.422551 37.4324 -0.689654 35.1993 1.43075L32.2601 4.22047L29.3209 1.43075C27.0878 -0.688871 23.6976 -0.422551 21.763 2.02587C19.8292 4.47351 20.0722 8.1895 22.3059 10.3099L26.9018 14.6725V18.1089C26.9018 21.3469 29.3052 23.9812 32.2594 23.9812C35.2135 23.9812 37.6169 21.3469 37.6169 18.1089V14.6725L42.2128 10.3099C43.2944 9.28289 43.9471 7.85603 44.0497 6.29089C44.1523 4.72577 43.6927 3.21142 42.7557 2.02587L42.7572 2.02509ZM36.1933 18.1081C36.1933 20.4847 34.429 22.4185 32.2608 22.4185C30.0925 22.4185 28.3283 20.4847 28.3283 18.1081V13.9587L23.2401 9.12904C21.6005 7.57327 21.4224 4.84526 22.8418 3.04819C23.6184 2.0657 24.715 1.56118 25.8173 1.56118C26.7301 1.56118 27.6471 1.90637 28.3896 2.61161L34.8359 8.7307C35.6988 9.54998 36.194 10.7379 36.194 11.989V18.1081H36.1933ZM42.6296 6.17843C42.5541 7.32651 42.076 8.37461 41.2815 9.12821L37.6184 12.6052V11.989C37.6184 10.2841 36.9443 8.6659 35.7679 7.54984L33.3488 5.25372L36.132 2.61161C37.7708 1.05587 40.2597 1.25112 41.6791 3.04819C42.3667 3.91823 42.7044 5.03036 42.6289 6.17921L42.6296 6.17843Z" fill="currentColor"/>
            <path d="M22.8894 15.1903L16.5022 3.06456C16.0362 2.12893 15.345 1.34871 14.4814 0.80201C11.9235 -0.816992 8.64006 0.147538 7.16299 2.95209L0.716672 15.1903C-0.760415 17.9948 0.119567 21.5937 2.67757 23.2127C3.492 23.7281 4.41687 23.9999 5.35243 23.9999C7.26272 23.9999 9.04263 22.8745 9.99676 21.0626L11.803 17.6333L13.6093 21.0626C14.5634 22.8745 16.3433 23.9999 18.2536 23.9999C19.1891 23.9999 20.114 23.7274 20.9284 23.2127C23.4872 21.5937 24.3664 17.9948 22.8894 15.1903ZM8.76265 20.2816C8.06223 21.6116 6.75543 22.4379 5.35243 22.4379C4.66697 22.4379 3.98792 22.238 3.39011 21.86C1.51186 20.6713 0.866306 18.03 1.95078 15.9713L8.39709 3.73309C9.12461 2.35151 10.4492 1.57832 11.8095 1.57832C12.4763 1.57832 13.1511 1.7642 13.7689 2.15469C14.3767 2.53973 14.8683 3.08252 15.2089 3.73231L15.2524 3.8151C15.4013 4.11422 15.5196 4.43442 15.6015 4.77181C15.8737 5.88395 15.7341 7.04527 15.2089 8.0426L8.76265 20.2808V20.2816ZM20.2159 21.8592C19.6181 22.2372 18.9398 22.4372 18.2536 22.4372C16.8506 22.4372 15.5439 21.6109 14.8434 20.2808L12.626 16.0705L16.443 8.82361C16.7159 8.30584 16.9119 7.75523 17.0295 7.18902L21.6553 15.9705C22.7397 18.0292 22.0935 20.6705 20.2159 21.8592Z" fill="currentColor"/>
        </g>
    </g>
    <defs>
        <clipPath id="clip0_2210_366">
            <rect width="64.4211" height="24" fill="white"/>
        </clipPath>
    </defs>
</symbol>

<symbol id="check" viewBox="0 0 16 16" fill="none" xmlns="http://www.w3.org/2000/svg">
    <path fill-rule="evenodd" clip-rule="evenodd" d="M14.7071 3.49284C15.0976 3.88337 15.0976 4.51653 14.7071 4.90706L7.41421 12.2C6.63317 12.981 5.36684 12.981 4.58579 12.2L1.29289 8.90706C0.902369 8.51653 0.902369 7.88337 1.29289 7.49284C1.68342 7.10232 2.31658 7.10232 2.70711 7.49284L6 10.7857L13.2929 3.49284C13.6834 3.10232 14.3166 3.10232 14.7071 3.49284Z" fill="currentColor"/>
</symbol>

<symbol id="cross-filled" viewBox="0 0 16 16" fill="none" xmlns="http://www.w3.org/2000/svg">
    <path fill-rule="evenodd" clip-rule="evenodd" d="M8 16C12.4183 16 16 12.4183 16 8C16 3.58172 12.4183 0 8 0C3.58172 0 0 3.58172 0 8C0 12.4183 3.58172 16 8 16ZM5.70711 4.29289C5.31658 3.90237 4.68342 3.90237 4.29289 4.29289C3.90237 4.68342 3.90237 5.31658 4.29289 5.70711L6.58579 8L4.29289 10.2929C3.90237 10.6834 3.90237 11.3166 4.29289 11.7071C4.68342 12.0976 5.31658 12.0976 5.70711 11.7071L8 9.41421L10.2929 11.7071C10.6834 12.0976 11.3166 12.0976 11.7071 11.7071C12.0976 11.3166 12.0976 10.6834 11.7071 10.2929L9.41421 8L11.7071 5.70711C12.0976 5.31658 12.0976 4.68342 11.7071 4.29289C11.3166 3.90237 10.6834 3.90237 10.2929 4.29289L8 6.58579L5.70711 4.29289Z" fill="currentColor"/>
</symbol>

<symbol id="cross" viewBox="0 0 16 16" fill="none" xmlns="http://www.w3.org/2000/svg">
    <path fill-rule="evenodd" clip-rule="evenodd" d="M1.29289 1.29289C1.68342 0.902369 2.31658 0.902369 2.70711 1.29289L8 6.58579L13.2929 1.29289C13.6834 0.902369 14.3166 0.902369 14.7071 1.29289C15.0976 1.68342 15.0976 2.31658 14.7071 2.70711L9.41421 8L14.7071 13.2929C15.0976 13.6834 15.0976 14.3166 14.7071 14.7071C14.3166 15.0976 13.6834 15.0976 13.2929 14.7071L8 9.41421L2.70711 14.7071C2.31658 15.0976 1.68342 15.0976 1.29289 14.7071C0.902369 14.3166 0.902369 13.6834 1.29289 13.2929L6.58579 8L1.29289 2.70711C0.902369 2.31658 0.902369 1.68342 1.29289 1.29289Z" fill="currentColor"/>
</symbol>

<symbol id="eat" viewBox="0 0 16 16" fill="none" xmlns="http://www.w3.org/2000/svg">
    <path d="M5.55047 2.05002C5.55047 1.74625 5.30421 1.5 5.00045 1.5C4.69668 1.5 4.45043 1.74625 4.45043 2.05002V5.9498C4.45043 6.25367 4.2041 6.5 3.90023 6.5C3.59637 6.5 3.35004 6.25367 3.35004 5.9498V2.05002C3.35004 1.74625 3.10378 1.5 2.80002 1.5C2.49625 1.5 2.25 1.74625 2.25 2.05002V6.22973C2.25 7.41745 3.16207 8.39215 4.32402 8.49164L4 14C4 14.5523 4.44772 15 5 15C5.55228 15 6 14.5523 6 14L5.67598 8.49164C6.83793 8.39215 7.75 7.41745 7.75 6.22973V2.05002C7.75 1.74625 7.50375 1.5 7.19998 1.5C6.89622 1.5 6.64996 1.74625 6.64996 2.05002V5.95025C6.64996 6.25387 6.40383 6.5 6.10021 6.5C5.7966 6.5 5.55047 6.25387 5.55047 5.95025V2.05002Z" fill="currentColor"/>
    <path d="M13.5 5C13.5 6.60859 12.7249 7.96372 11.669 8.37327L12 14C12 14.5523 11.5523 15 11 15C10.4477 15 10 14.5523 10 14L10.331 8.37327C9.27512 7.96372 8.5 6.60859 8.5 5C8.5 3.067 9.61929 1.5 11 1.5C12.3807 1.5 13.5 3.067 13.5 5Z" fill="currentColor"/>
</symbol>

<symbol id="edit" viewBox="0 0 16 16" fill="none" xmlns="http://www.w3.org/2000/svg">
    <path d="M13.7929 6.37868L14.5858 5.58579C15.3668 4.80474 15.3668 3.53841 14.5858 2.75736L13.4142 1.58579C12.6332 0.804738 11.3668 0.804738 10.5858 1.58579L9.79289 2.37868L13.7929 6.37868Z" fill="currentColor"/>
    <path d="M8.37868 3.79289L1.58579 10.5858C1.21071 10.9609 1 11.4696 1 12V15.1716H4.17157C4.70201 15.1716 5.21071 14.9609 5.58579 14.5858L12.3787 7.79289L8.37868 3.79289Z" fill="currentColor"/>
</symbol>

<symbol id="error" width="16" height="16" viewBox="0 0 16 16" fill="none" xmlns="http://www.w3.org/2000/svg">
    <path fill-rule="evenodd" clip-rule="evenodd"
          d="M8 16C12.4183 16 16 12.4183 16 8C16 3.58172 12.4183 0 8 0C3.58172 0 0 3.58172 0 8C0 12.4183 3.58172 16 8 16ZM7 4C7 3.44772 7.44772 3 8 3C8.55229 3 9 3.44772 9 4V8.5C9 9.05229 8.55229 9.5 8 9.5C7.44772 9.5 7 9.05228 7 8.5V4ZM8 11C7.44772 11 7 11.4477 7 12C7 12.5523 7.44772 13 8 13C8.55229 13 9 12.5523 9 12C9 11.4477 8.55229 11 8 11Z"
          fill="currentColor"/>
</symbol>

<symbol id="minus"  viewBox="0 0 16 16" fill="none" xmlns="http://www.w3.org/2000/svg">
    <path fill-rule="evenodd" clip-rule="evenodd" d="M0.5 8C0.5 7.44772 0.947715 7 1.5 7H14.5C15.0523 7 15.5 7.44772 15.5 8C15.5 8.55228 15.0523 9 14.5 9H1.5C0.947715 9 0.5 8.55228 0.5 8Z" fill="currentColor"/>
</symbol>

<symbol id="spinner" xmlns="http://www.w3.org/2000/svg" viewBox="0 0 24 24">
    <path fill="currentColor"
          d="M12,23a9.63,9.63,0,0,1-8-9.5,9.51,9.51,0,0,1,6.79-9.1A1.66,1.66,0,0,0,12,2.81h0a1.67,1.67,0,0,0-1.94-1.64A11,11,0,0,0,12,23Z" />
</symbol>
<symbol id="trashcan" viewBox="0 0 16 16" fill="none" xmlns="http://www.w3.org/2000/svg">
    <path d="M2.28592 1.71429C1.65474 1.71429 1.14307 2.22596 1.14307 2.85714V3.42857C1.14307 4.05975 1.65474 4.57143 2.28592 4.57143H13.7145C14.3457 4.57143 14.8574 4.05975 14.8574 3.42857V2.85714C14.8574 2.22596 14.3457 1.71429 13.7145 1.71429H10.8574V1.14286C10.8574 0.511675 10.3457 0 9.71449 0H6.28592C5.65474 0 5.14307 0.511675 5.14307 1.14286V1.71429H2.28592Z" fill="currentColor"/>
    <path fill-rule="evenodd" clip-rule="evenodd" d="M2.42692 6.98335C2.3517 6.30636 2.88164 5.71429 3.56279 5.71429H12.4376C13.1188 5.71429 13.6487 6.30636 13.5735 6.98335L12.6846 14.9834C12.6203 15.5621 12.1311 16 11.5487 16H4.45168C3.86934 16 3.38012 15.5621 3.31581 14.9834L2.42692 6.98335ZM6.28594 8C5.78099 8 5.37165 8.40934 5.37165 8.91429V12.8C5.37165 13.3049 5.78099 13.7143 6.28594 13.7143C6.79089 13.7143 7.20023 13.3049 7.20023 12.8V8.91429C7.20023 8.40934 6.79089 8 6.28594 8ZM9.71451 8C9.20957 8 8.80023 8.40934 8.80023 8.91429V12.8C8.80023 13.3049 9.20957 13.7143 9.71451 13.7143C10.2195 13.7143 10.6288 13.3049 10.6288 12.8V8.91429C10.6288 8.40934 10.2195 8 9.71451 8Z" fill="currentColor"/>
</symbol>

</svg>